<?xml version="1.0" encoding="UTF-8"?>
<!DOCTYPE svg PUBLIC "-//W3C//DTD SVG 1.1//EN" "http://www.w3.org/Graphics/SVG/1.1/DTD/svg11.dtd">
<!-- Creator: CorelDRAW 2017 -->
<svg xmlns="http://www.w3.org/2000/svg" xml:space="preserve" width="52.5039mm" height="10.8875mm" version="1.1" style="shape-rendering:geometricPrecision; text-rendering:geometricPrecision; image-rendering:optimizeQuality; fill-rule:evenodd; clip-rule:evenodd"
viewBox="0 0 652.58 135.32"
 xmlns:xlink="http://www.w3.org/1999/xlink">
 <defs>
  <style type="text/css">
   <![CDATA[
    .fil1 {fill:white}
    .fil0 {fill:white;fill-rule:nonzero}
   ]]>
  </style>
 </defs>
 <g id="Layer_x0020_1">
  <metadata id="CorelCorpID_0Corel-Layer"/>
  <g id="_3241878706960">
   <g>
    <path class="fil0" d="M195.36 2.49l15.2 0 0 0.95 -2.74 0 0 32.99 2.74 0 0 0.95 -15.2 0 0 -0.95 2.74 0 0 -32.99 -2.74 0 0 -0.95zm18.09 35.38l0 -8.92 0.6 0c0.86,2.89 2.03,4.92 3.49,6.08 1.46,1.16 3.29,1.75 5.48,1.75 3.39,0 5.08,-1.08 5.08,-3.24 0,-0.93 -0.42,-1.63 -1.25,-2.09 -1.3,-0.73 -2.96,-1.3 -4.98,-1.69 -2.26,-0.6 -4.15,-1.4 -5.68,-2.39 -1.83,-1.19 -2.74,-3.09 -2.74,-5.68 0,-2.59 0.8,-4.66 2.39,-6.21 1.59,-1.54 3.72,-2.32 6.38,-2.32 1.63,0 3.31,0.38 5.03,1.15 0.63,0.27 1.11,0.4 1.45,0.4 0.33,0 0.62,-0.12 0.85,-0.35 0.23,-0.23 0.52,-0.66 0.85,-1.3l0.55 0 0 7.63 -0.6 0c-1.7,-4.32 -4.32,-6.48 -7.87,-6.48 -1.56,0 -2.72,0.27 -3.49,0.82 -0.76,0.55 -1.15,1.24 -1.15,2.07 0,0.5 0.12,0.89 0.35,1.17 0.23,0.28 0.42,0.49 0.55,0.62 0.13,0.13 0.35,0.27 0.65,0.42 0.3,0.15 0.55,0.27 0.75,0.35 0.2,0.08 0.51,0.19 0.92,0.32 0.42,0.13 0.72,0.22 0.92,0.25 2.26,0.56 3.89,1.06 4.88,1.47 1,0.42 1.94,0.92 2.84,1.52 1.83,1.26 2.74,3.3 2.74,6.11 0,2.81 -0.83,4.93 -2.49,6.38 -1.66,1.45 -3.94,2.17 -6.83,2.17 -2.06,0 -4.05,-0.48 -5.98,-1.44 -0.4,-0.27 -0.71,-0.4 -0.95,-0.4 -0.73,0 -1.45,0.62 -2.14,1.84l-0.6 0zm32.45 -12.21l1.44 0 0 -3.84c0,-3.16 -0.17,-5.27 -0.52,-6.35 -0.35,-1.08 -1.02,-1.62 -2.02,-1.62 -0.6,0 -1.14,0.16 -1.62,0.47 -0.48,0.32 -0.72,0.75 -0.72,1.3 0,0.55 0.1,1.1 0.3,1.67l1.25 0c0.26,0.7 0.4,1.54 0.4,2.52 0,0.98 -0.42,1.83 -1.25,2.54 -0.83,0.71 -1.88,1.07 -3.14,1.07 -2.86,0 -4.29,-1.38 -4.29,-4.14 0,-4.09 3.47,-6.13 10.42,-6.13 3.95,0 6.69,0.67 8.2,2.02 1.51,1.35 2.27,3.81 2.27,7.4l0 10.12c0,1.73 0.48,2.59 1.44,2.59 1.13,0 1.79,-1.71 1.99,-5.13l0.75 0.05c-0.13,2.92 -0.68,4.93 -1.65,6.03 -0.96,1.1 -2.54,1.64 -4.73,1.64 -3.99,0 -6.28,-1.23 -6.88,-3.69 -0.43,1.26 -1.08,2.19 -1.94,2.79 -0.86,0.6 -2.13,0.9 -3.79,0.9 -4.92,0 -7.38,-2.01 -7.38,-6.03 0,-2.36 0.94,-3.98 2.82,-4.86 1.88,-0.88 4.76,-1.32 8.65,-1.32zm-1.99 6.13c0,1.73 0.09,2.84 0.27,3.34 0.18,0.5 0.53,0.75 1.05,0.75 0.51,0 1,-0.43 1.44,-1.27 0.45,-0.85 0.67,-2.02 0.67,-3.51l0 -4.63 -0.35 0c-2.06,0 -3.09,1.51 -3.09,4.53l0 0.8zm35.59 -7.82c0,-3.42 -0.17,-5.72 -0.5,-6.9 -0.33,-1.18 -0.98,-1.77 -1.94,-1.77 -0.96,0 -1.83,0.6 -2.59,1.79 -0.76,1.2 -1.15,2.84 -1.15,4.93l0 9.27c0,1.43 0.29,2.64 0.87,3.64 0.58,1 1.41,1.5 2.49,1.5 1.08,0 1.82,-0.73 2.22,-2.19 0.4,-1.46 0.6,-4.02 0.6,-7.67l0 -2.59zm-6.18 -23.97l0 17.44c1.26,-2.86 3.42,-4.29 6.48,-4.29 6.21,0 9.32,4.14 9.32,12.41 0,4.22 -0.86,7.33 -2.57,9.32 -1.71,1.99 -4.28,2.99 -7.7,2.99 -1.73,0 -3.05,-0.27 -3.96,-0.8 -0.91,-0.53 -1.54,-1.41 -1.87,-2.64l-0.35 2.94 -11.36 0 0 -0.9 2.74 0 0 -35.58 -2.74 0 0 -0.9 12.01 0zm30.4 37.88c-4.29,0 -7.5,-1.1 -9.64,-3.31 -2.14,-2.21 -3.21,-5.28 -3.21,-9.22 0,-3.94 1.2,-6.95 3.61,-9.04 2.41,-2.09 5.47,-3.14 9.2,-3.14 7.54,0 11.16,3.79 10.87,11.36l-14.05 0 0 1.94c0,3.26 0.42,5.71 1.25,7.38 0.83,1.66 2.28,2.49 4.34,2.49 3.85,0 6.38,-2.06 7.58,-6.18l0.9 0.15c-0.63,2.39 -1.77,4.25 -3.42,5.58 -1.64,1.33 -4.11,1.99 -7.4,1.99zm-3.19 -14.35l5.13 0 0 -2.44c0,-2.69 -0.16,-4.53 -0.47,-5.51 -0.32,-0.98 -0.95,-1.47 -1.89,-1.47 -0.95,0 -1.64,0.52 -2.09,1.57 -0.45,1.05 -0.67,2.85 -0.67,5.41l0 2.44zm15.6 -23.52l12.21 0 0 36.48 2.79 0 0 0.9 -14.8 0 0 -0.9 2.74 0 0 -35.58 -2.94 0 0 -0.9zm25.47 2.49l25.92 0 0.5 10.37 -0.9 0c-1.23,-3.59 -2.65,-6.03 -4.26,-7.33 -1.61,-1.3 -4.01,-1.95 -7.2,-1.95l-1.39 0 0 16.2 2.24 0c1.6,0 2.93,-0.58 3.99,-1.74 1.06,-1.16 1.79,-2.76 2.19,-4.79l0.75 0 0 14.75 -0.85 0c-0.53,-2.49 -1.27,-4.27 -2.22,-5.33 -0.95,-1.06 -2.24,-1.6 -3.86,-1.6l-2.24 0 0 15.2 6.18 0 0 1.1 -18.84 0 0 -1.1 2.94 0 0 -32.69 -2.94 0 0 -1.1zm42.56 25.07l0 -4.24c0,-3.22 -0.17,-5.57 -0.52,-7.05 -0.35,-1.48 -1.15,-2.22 -2.42,-2.22 -0.73,0 -1.32,0.21 -1.77,0.62 -0.45,0.42 -0.77,1.1 -0.97,2.07 -0.3,1.49 -0.45,3.77 -0.45,6.83l0 3.89c0,3.62 0.11,5.8 0.32,6.53 0.22,0.73 0.44,1.33 0.67,1.79 0.37,0.8 1.08,1.2 2.14,1.2 1.3,0 2.14,-0.75 2.54,-2.24 0.3,-1.07 0.45,-3.46 0.45,-7.18zm-3.09 10.32c-4.15,0 -7.29,-1.06 -9.42,-3.19 -2.13,-2.13 -3.19,-5.17 -3.19,-9.15 0,-3.97 1.14,-7.03 3.41,-9.17 2.28,-2.14 5.47,-3.22 9.59,-3.22 4.12,0 7.19,0.99 9.22,2.97 2.03,1.98 3.04,4.99 3.04,9.05 0,8.47 -4.22,12.71 -12.66,12.71zm14.15 -24.22l12.01 0 0 4.58c0.53,-1.53 1.35,-2.76 2.44,-3.69 1.1,-0.93 2.76,-1.4 4.99,-1.4 5.15,0 7.72,2.78 7.72,8.32l0 15 2.79 0 0 0.9 -14.1 0 0 -0.9 2.04 0 0 -16.2c0,-1.99 -0.13,-3.28 -0.4,-3.86 -0.27,-0.58 -0.75,-0.87 -1.44,-0.87 -1.06,0 -2,0.7 -2.82,2.09 -0.81,1.4 -1.22,3.09 -1.22,5.08l0 13.76 2.14 0 0 0.9 -14.15 0 0 -0.9 2.74 0 0 -21.93 -2.74 0 0 -0.9zm31.75 24.22l0 -8.92 0.6 0c0.86,2.89 2.03,4.92 3.49,6.08 1.46,1.16 3.29,1.75 5.48,1.75 3.39,0 5.08,-1.08 5.08,-3.24 0,-0.93 -0.42,-1.63 -1.25,-2.09 -1.3,-0.73 -2.96,-1.3 -4.98,-1.69 -2.26,-0.6 -4.15,-1.4 -5.68,-2.39 -1.83,-1.19 -2.74,-3.09 -2.74,-5.68 0,-2.59 0.8,-4.66 2.39,-6.21 1.59,-1.54 3.72,-2.32 6.38,-2.32 1.63,0 3.31,0.38 5.04,1.15 0.63,0.27 1.11,0.4 1.45,0.4 0.33,0 0.61,-0.12 0.85,-0.35 0.23,-0.23 0.52,-0.66 0.85,-1.3l0.55 0 0 7.63 -0.6 0c-1.69,-4.32 -4.32,-6.48 -7.87,-6.48 -1.56,0 -2.73,0.27 -3.49,0.82 -0.77,0.55 -1.15,1.24 -1.15,2.07 0,0.5 0.12,0.89 0.35,1.17 0.23,0.28 0.42,0.49 0.55,0.62 0.13,0.13 0.35,0.27 0.65,0.42 0.3,0.15 0.55,0.27 0.75,0.35 0.2,0.08 0.51,0.19 0.92,0.32 0.42,0.13 0.72,0.22 0.92,0.25 2.26,0.56 3.89,1.06 4.88,1.47 1,0.42 1.95,0.92 2.84,1.52 1.83,1.26 2.74,3.3 2.74,6.11 0,2.81 -0.83,4.93 -2.49,6.38 -1.66,1.45 -3.94,2.17 -6.83,2.17 -2.06,0 -4.05,-0.48 -5.98,-1.44 -0.4,-0.27 -0.71,-0.4 -0.95,-0.4 -0.73,0 -1.45,0.62 -2.14,1.84l-0.6 0zm33.59 0c-4.29,0 -7.5,-1.1 -9.64,-3.31 -2.14,-2.21 -3.21,-5.28 -3.21,-9.22 0,-3.94 1.2,-6.95 3.61,-9.04 2.41,-2.09 5.47,-3.14 9.19,-3.14 7.54,0 11.16,3.79 10.87,11.36l-14.05 0 0 1.94c0,3.26 0.42,5.71 1.25,7.38 0.83,1.66 2.28,2.49 4.34,2.49 3.85,0 6.38,-2.06 7.58,-6.18l0.9 0.15c-0.63,2.39 -1.77,4.25 -3.41,5.58 -1.64,1.33 -4.11,1.99 -7.4,1.99zm-3.19 -14.35l5.13 0 0 -2.44c0,-2.69 -0.16,-4.53 -0.47,-5.51 -0.32,-0.98 -0.95,-1.47 -1.89,-1.47 -0.95,0 -1.65,0.52 -2.09,1.57 -0.45,1.05 -0.67,2.85 -0.67,5.41l0 2.44zm29.75 -9.47c-1.46,0 -2.51,0.8 -3.14,2.39 -0.63,1.6 -0.95,4.24 -0.95,7.92l0 2.59c0,3.29 0.37,5.65 1.1,7.08 0.73,1.43 2.08,2.14 4.04,2.14 1.96,0 3.52,-0.66 4.69,-1.99 1.16,-1.33 1.91,-2.84 2.24,-4.54l0.9 0.1c-0.63,2.86 -1.79,4.92 -3.49,6.18 -1.73,1.3 -4.1,1.94 -7.13,1.94 -3.85,0 -6.81,-1.04 -8.87,-3.11 -2.06,-2.08 -3.09,-5.12 -3.09,-9.12 0,-4 1.17,-7.08 3.51,-9.24 2.34,-2.16 5.61,-3.24 9.79,-3.24 2.96,0 5.22,0.57 6.78,1.72 1.56,1.15 2.34,2.58 2.34,4.31 0,1.73 -0.38,2.99 -1.12,3.79 -0.75,0.8 -1.78,1.2 -3.09,1.2 -1.31,0 -2.37,-0.35 -3.16,-1.05 -0.8,-0.7 -1.19,-1.73 -1.19,-3.09 0,-0.6 0.08,-1.2 0.25,-1.79l1.64 0c0.23,-0.66 0.35,-1.26 0.35,-1.79 0,-1.59 -0.8,-2.39 -2.39,-2.39zm22.08 11.61l1.44 0 0 -3.84c0,-3.16 -0.17,-5.27 -0.52,-6.35 -0.35,-1.08 -1.02,-1.62 -2.02,-1.62 -0.6,0 -1.14,0.16 -1.62,0.47 -0.48,0.32 -0.72,0.75 -0.72,1.3 0,0.55 0.1,1.1 0.3,1.67l1.25 0c0.27,0.7 0.4,1.54 0.4,2.52 0,0.98 -0.41,1.83 -1.25,2.54 -0.83,0.71 -1.88,1.07 -3.14,1.07 -2.86,0 -4.29,-1.38 -4.29,-4.14 0,-4.09 3.47,-6.13 10.42,-6.13 3.95,0 6.69,0.67 8.2,2.02 1.51,1.35 2.27,3.81 2.27,7.4l0 10.12c0,1.73 0.48,2.59 1.44,2.59 1.13,0 1.79,-1.71 1.99,-5.13l0.75 0.05c-0.13,2.92 -0.68,4.93 -1.64,6.03 -0.96,1.1 -2.54,1.64 -4.74,1.64 -3.99,0 -6.28,-1.23 -6.88,-3.69 -0.43,1.26 -1.08,2.19 -1.94,2.79 -0.86,0.6 -2.13,0.9 -3.79,0.9 -4.92,0 -7.38,-2.01 -7.38,-6.03 0,-2.36 0.94,-3.98 2.82,-4.86 1.88,-0.88 4.76,-1.32 8.65,-1.32zm-1.99 6.13c0,1.73 0.09,2.84 0.27,3.34 0.18,0.5 0.53,0.75 1.05,0.75 0.51,0 1,-0.43 1.44,-1.27 0.45,-0.85 0.67,-2.02 0.67,-3.51l0 -4.63 -0.35 0c-2.06,0 -3.09,1.51 -3.09,4.53l0 0.8z"/>
    <path class="fil0" d="M200.46 79.26l0 9.23 -2.86 0 0 -24.43 6.71 0c2.61,0 4.63,0.63 6.08,1.91 1.44,1.27 2.15,3.06 2.15,5.38 0,2.31 -0.8,4.21 -2.4,5.69 -1.59,1.48 -3.75,2.22 -6.46,2.22l-3.22 0zm0 -12.61l0 10.02 3 0c1.97,0 3.48,-0.45 4.52,-1.35 1.04,-0.9 1.56,-2.18 1.56,-3.83 0,-3.23 -1.91,-4.84 -5.72,-4.84l-3.35 0zm25.4 7.22c-0.49,-0.37 -1.19,-0.56 -2.11,-0.56 -1.2,0 -2.19,0.56 -2.99,1.69 -0.8,1.12 -1.2,2.66 -1.2,4.6l0 8.89 -2.8 0 0 -17.44 2.8 0 0 3.59 0.07 0c0.4,-1.23 1,-2.18 1.82,-2.87 0.82,-0.69 1.73,-1.03 2.74,-1.03 0.73,0 1.28,0.08 1.67,0.24l0 2.9zm10.32 15.02c-2.58,0 -4.63,-0.81 -6.17,-2.44 -1.53,-1.63 -2.31,-3.79 -2.31,-6.48 0,-2.93 0.8,-5.22 2.4,-6.87 1.6,-1.65 3.77,-2.46 6.49,-2.46 2.6,0 4.63,0.8 6.09,2.4 1.46,1.6 2.19,3.82 2.19,6.66 0,2.79 -0.79,5.01 -2.36,6.69 -1.57,1.67 -3.69,2.51 -6.33,2.51zm0.2 -15.91c-1.79,0 -3.21,0.61 -4.26,1.83 -1.05,1.22 -1.57,2.9 -1.57,5.05 0,2.06 0.53,3.69 1.59,4.88 1.06,1.19 2.47,1.79 4.24,1.79 1.81,0 3.2,-0.59 4.17,-1.76 0.97,-1.17 1.45,-2.83 1.45,-4.99 0,-2.18 -0.48,-3.86 -1.45,-5.04 -0.97,-1.19 -2.36,-1.77 -4.17,-1.77zm37.72 15.5l-2.79 0 0 -10.02c0,-1.93 -0.3,-3.33 -0.9,-4.19 -0.6,-0.87 -1.6,-1.3 -3.01,-1.3 -1.19,0 -2.21,0.55 -3.04,1.63 -0.84,1.09 -1.26,2.4 -1.26,3.92l0 9.95 -2.79 0 0 -10.36c0,-3.43 -1.33,-5.14 -3.97,-5.14 -1.23,0 -2.23,0.51 -3.03,1.54 -0.8,1.03 -1.19,2.37 -1.19,4.01l0 9.95 -2.8 0 0 -17.44 2.8 0 0 2.76 0.07 0c1.23,-2.12 3.04,-3.17 5.41,-3.17 1.19,0 2.23,0.33 3.12,0.99 0.89,0.66 1.49,1.53 1.83,2.62 1.29,-2.41 3.22,-3.61 5.79,-3.61 3.84,0 5.76,2.37 5.76,7.1l0 10.75zm12.57 0.41c-2.58,0 -4.63,-0.81 -6.18,-2.44 -1.53,-1.63 -2.31,-3.79 -2.31,-6.48 0,-2.93 0.8,-5.22 2.4,-6.87 1.6,-1.65 3.77,-2.46 6.49,-2.46 2.6,0 4.63,0.8 6.09,2.4 1.46,1.6 2.19,3.82 2.19,6.66 0,2.79 -0.79,5.01 -2.36,6.69 -1.57,1.67 -3.69,2.51 -6.33,2.51zm0.2 -15.91c-1.79,0 -3.21,0.61 -4.26,1.83 -1.05,1.22 -1.57,2.9 -1.57,5.05 0,2.06 0.53,3.69 1.59,4.88 1.06,1.19 2.47,1.79 4.24,1.79 1.81,0 3.2,-0.59 4.17,-1.76 0.97,-1.17 1.45,-2.83 1.45,-4.99 0,-2.18 -0.48,-3.86 -1.45,-5.04 -0.97,-1.19 -2.36,-1.77 -4.17,-1.77zm21.04 15.33c-0.66,0.36 -1.53,0.54 -2.61,0.54 -3.06,0 -4.58,-1.7 -4.58,-5.11l0 -10.32 -3 0 0 -2.38 3 0 0 -4.26 2.79 -0.91 0 5.16 4.39 0 0 2.38 -4.39 0 0 9.83c0,1.17 0.2,2 0.6,2.5 0.4,0.5 1.05,0.75 1.98,0.75 0.7,0 1.31,-0.19 1.82,-0.58l0 2.39zm11.02 0.58c-2.58,0 -4.63,-0.81 -6.18,-2.44 -1.53,-1.63 -2.31,-3.79 -2.31,-6.48 0,-2.93 0.8,-5.22 2.4,-6.87 1.6,-1.65 3.77,-2.46 6.49,-2.46 2.6,0 4.63,0.8 6.09,2.4 1.46,1.6 2.19,3.82 2.19,6.66 0,2.79 -0.78,5.01 -2.36,6.69 -1.57,1.67 -3.69,2.51 -6.33,2.51zm0.2 -15.91c-1.79,0 -3.21,0.61 -4.26,1.83 -1.05,1.22 -1.57,2.9 -1.57,5.05 0,2.06 0.53,3.69 1.59,4.88 1.06,1.19 2.47,1.79 4.24,1.79 1.81,0 3.2,-0.59 4.17,-1.76 0.97,-1.17 1.45,-2.83 1.45,-4.99 0,-2.18 -0.48,-3.86 -1.45,-5.04 -0.97,-1.19 -2.36,-1.77 -4.17,-1.77zm22.05 0.88c-0.49,-0.37 -1.19,-0.56 -2.11,-0.56 -1.2,0 -2.19,0.56 -2.99,1.69 -0.8,1.12 -1.2,2.66 -1.2,4.6l0 8.89 -2.8 0 0 -17.44 2.8 0 0 3.59 0.07 0c0.4,-1.23 1,-2.18 1.82,-2.87 0.82,-0.69 1.73,-1.03 2.74,-1.03 0.73,0 1.28,0.08 1.67,0.24l0 2.9zm15.52 14.62l-2.8 0 0 -2.73 -0.06 0c-1.21,2.09 -3.01,3.13 -5.37,3.13 -1.74,0 -3.1,-0.46 -4.08,-1.38 -0.98,-0.92 -1.47,-2.14 -1.47,-3.66 0,-3.26 1.92,-5.16 5.76,-5.69l5.23 -0.73c0,-2.96 -1.2,-4.45 -3.59,-4.45 -2.1,0 -3.99,0.71 -5.69,2.14l0 -2.86c1.72,-1.09 3.69,-1.63 5.92,-1.63 4.1,0 6.15,2.17 6.15,6.51l0 11.34zm-2.8 -8.83l-4.2 0.58c-1.3,0.18 -2.27,0.5 -2.93,0.97 -0.66,0.46 -0.99,1.27 -0.99,2.44 0,0.85 0.3,1.55 0.91,2.09 0.6,0.54 1.41,0.81 2.42,0.81 1.38,0 2.53,-0.49 3.43,-1.45 0.91,-0.97 1.35,-2.2 1.35,-3.69l0 -1.74zm32.51 8.83l-2.8 0 0 -2.96 -0.06 0c-1.3,2.25 -3.3,3.37 -6,3.37 -2.19,0 -3.94,-0.78 -5.25,-2.34 -1.31,-1.56 -1.97,-3.69 -1.97,-6.38 0,-2.88 0.73,-5.19 2.18,-6.93 1.45,-1.74 3.39,-2.6 5.81,-2.6 2.4,0 4.14,0.94 5.23,2.83l0.06 0 0 -10.8 2.8 0 0 25.82zm-2.8 -7.88l0 -2.58c0,-1.41 -0.46,-2.6 -1.39,-3.58 -0.93,-0.98 -2.11,-1.46 -3.54,-1.46 -1.7,0 -3.05,0.62 -4.02,1.87 -0.98,1.25 -1.46,2.98 -1.46,5.18 0,2.01 0.47,3.59 1.41,4.76 0.94,1.16 2.2,1.75 3.77,1.75 1.56,0 2.82,-0.56 3.79,-1.69 0.97,-1.12 1.45,-2.55 1.45,-4.26zm15.74 8.29c-2.58,0 -4.63,-0.81 -6.17,-2.44 -1.53,-1.63 -2.31,-3.79 -2.31,-6.48 0,-2.93 0.8,-5.22 2.4,-6.87 1.6,-1.65 3.77,-2.46 6.49,-2.46 2.6,0 4.63,0.8 6.09,2.4 1.46,1.6 2.19,3.82 2.19,6.66 0,2.79 -0.79,5.01 -2.36,6.69 -1.57,1.67 -3.69,2.51 -6.33,2.51zm0.2 -15.91c-1.79,0 -3.21,0.61 -4.25,1.83 -1.05,1.22 -1.57,2.9 -1.57,5.05 0,2.06 0.53,3.69 1.59,4.88 1.06,1.19 2.47,1.79 4.24,1.79 1.81,0 3.2,-0.59 4.17,-1.76 0.97,-1.17 1.45,-2.83 1.45,-4.99 0,-2.18 -0.48,-3.86 -1.45,-5.04 -0.97,-1.19 -2.36,-1.77 -4.17,-1.77zm25.37 12.98l-0.07 0 0 10.55 -2.8 0 0 -25.47 2.8 0 0 3.06 0.07 0c1.37,-2.31 3.38,-3.47 6.03,-3.47 2.24,0 4,0.78 5.26,2.34 1.26,1.56 1.89,3.65 1.89,6.27 0,2.92 -0.71,5.26 -2.13,7.01 -1.42,1.75 -3.36,2.63 -5.83,2.63 -2.26,0 -4,-0.98 -5.23,-2.93zm-0.07 -7.03l0 2.44c0,1.44 0.47,2.67 1.41,3.67 0.93,1.01 2.12,1.51 3.56,1.51 1.69,0 3.02,-0.65 3.98,-1.94 0.96,-1.3 1.44,-3.09 1.44,-5.4 0,-1.94 -0.45,-3.46 -1.35,-4.56 -0.89,-1.1 -2.11,-1.65 -3.64,-1.65 -1.63,0 -2.93,0.56 -3.92,1.69 -0.99,1.13 -1.48,2.55 -1.48,4.25zm26.81 -5.06c-0.49,-0.37 -1.19,-0.56 -2.11,-0.56 -1.2,0 -2.19,0.56 -2.99,1.69 -0.8,1.12 -1.2,2.66 -1.2,4.6l0 8.89 -2.8 0 0 -17.44 2.8 0 0 3.59 0.07 0c0.4,-1.23 1,-2.18 1.82,-2.87 0.82,-0.69 1.73,-1.03 2.74,-1.03 0.73,0 1.28,0.08 1.67,0.24l0 2.9zm10.32 15.02c-2.58,0 -4.63,-0.81 -6.17,-2.44 -1.53,-1.63 -2.31,-3.79 -2.31,-6.48 0,-2.93 0.8,-5.22 2.4,-6.87 1.6,-1.65 3.77,-2.46 6.49,-2.46 2.6,0 4.63,0.8 6.09,2.4 1.46,1.6 2.19,3.82 2.19,6.66 0,2.79 -0.79,5.01 -2.36,6.69 -1.57,1.67 -3.69,2.51 -6.33,2.51zm0.2 -15.91c-1.79,0 -3.21,0.61 -4.25,1.83 -1.05,1.22 -1.57,2.9 -1.57,5.05 0,2.06 0.53,3.69 1.59,4.88 1.06,1.19 2.47,1.79 4.24,1.79 1.81,0 3.2,-0.59 4.17,-1.76 0.97,-1.17 1.45,-2.83 1.45,-4.99 0,-2.18 -0.48,-3.86 -1.45,-5.04 -0.97,-1.19 -2.36,-1.77 -4.17,-1.77zm15.75 14.77c0,2.86 -0.58,5.07 -1.73,6.62 -1.15,1.55 -2.8,2.33 -4.95,2.33 -0.79,0 -1.56,-0.18 -2.31,-0.55l0 -2.6c0.84,0.51 1.63,0.77 2.39,0.77 2.55,0 3.81,-2.03 3.81,-6.1l0 -17.17 2.8 0 0 16.71zm-1.37 -21.14c-0.49,0 -0.92,-0.17 -1.27,-0.51 -0.36,-0.34 -0.53,-0.77 -0.53,-1.29 0,-0.52 0.18,-0.96 0.53,-1.3 0.35,-0.35 0.78,-0.52 1.27,-0.52 0.51,0 0.95,0.17 1.31,0.52 0.36,0.34 0.53,0.78 0.53,1.3 0,0.5 -0.18,0.92 -0.53,1.27 -0.36,0.35 -0.8,0.53 -1.31,0.53zm21.04 13.85l-12.32 0c0.05,1.94 0.57,3.44 1.57,4.5 1,1.05 2.37,1.58 4.12,1.58 1.97,0 3.77,-0.65 5.42,-1.94l0 2.62c-1.53,1.12 -3.56,1.67 -6.08,1.67 -2.46,0 -4.4,-0.79 -5.81,-2.37 -1.41,-1.59 -2.12,-3.81 -2.12,-6.69 0,-2.71 0.77,-4.93 2.31,-6.63 1.54,-1.71 3.45,-2.56 5.73,-2.56 2.28,0 4.05,0.74 5.3,2.21 1.25,1.47 1.87,3.52 1.87,6.14l0 1.47zm-2.86 -2.37c-0.01,-1.61 -0.4,-2.87 -1.16,-3.77 -0.77,-0.89 -1.83,-1.34 -3.2,-1.34 -1.31,0 -2.44,0.47 -3.35,1.41 -0.92,0.94 -1.49,2.18 -1.7,3.7l9.42 0zm18.98 9.59c-1.34,0.81 -2.93,1.21 -4.77,1.21 -2.49,0 -4.49,-0.81 -6.02,-2.42 -1.52,-1.62 -2.29,-3.72 -2.29,-6.3 0,-2.87 0.83,-5.18 2.47,-6.93 1.65,-1.74 3.84,-2.61 6.59,-2.61 1.53,0 2.88,0.28 4.05,0.85l0 2.86c-1.3,-0.91 -2.68,-1.36 -4.16,-1.36 -1.78,0 -3.24,0.64 -4.38,1.92 -1.14,1.27 -1.72,2.95 -1.72,5.03 0,2.05 0.54,3.66 1.61,4.84 1.08,1.18 2.51,1.77 4.32,1.77 1.52,0 2.95,-0.51 4.29,-1.52l0 2.66zm12.32 0.63c-0.66,0.36 -1.53,0.54 -2.61,0.54 -3.06,0 -4.58,-1.7 -4.58,-5.11l0 -10.32 -3 0 0 -2.38 3 0 0 -4.26 2.79 -0.91 0 5.16 4.39 0 0 2.38 -4.39 0 0 9.83c0,1.17 0.2,2 0.6,2.5 0.4,0.5 1.05,0.75 1.98,0.75 0.7,0 1.31,-0.19 1.82,-0.58l0 2.39zm11.02 0.58c-2.58,0 -4.63,-0.81 -6.18,-2.44 -1.53,-1.63 -2.31,-3.79 -2.31,-6.48 0,-2.93 0.8,-5.22 2.4,-6.87 1.6,-1.65 3.77,-2.46 6.49,-2.46 2.6,0 4.63,0.8 6.09,2.4 1.46,1.6 2.19,3.82 2.19,6.66 0,2.79 -0.78,5.01 -2.35,6.69 -1.57,1.67 -3.69,2.51 -6.33,2.51zm0.2 -15.91c-1.79,0 -3.21,0.61 -4.25,1.83 -1.05,1.22 -1.57,2.9 -1.57,5.05 0,2.06 0.53,3.69 1.59,4.88 1.06,1.19 2.47,1.79 4.24,1.79 1.81,0 3.2,-0.59 4.17,-1.76 0.97,-1.17 1.45,-2.83 1.45,-4.99 0,-2.18 -0.48,-3.86 -1.45,-5.04 -0.97,-1.19 -2.36,-1.77 -4.17,-1.77zm22.88 15.5l0 -24.43 6.95 0c2.11,0 3.79,0.52 5.02,1.55 1.24,1.03 1.86,2.38 1.86,4.04 0,1.38 -0.38,2.59 -1.13,3.61 -0.75,1.02 -1.78,1.75 -3.1,2.18l0 0.07c1.65,0.19 2.97,0.81 3.95,1.86 0.99,1.05 1.48,2.42 1.48,4.1 0,2.09 -0.75,3.78 -2.25,5.08 -1.5,1.3 -3.39,1.94 -5.68,1.94l-7.12 0zm2.86 -21.84l0 7.89 2.93 0c1.56,0 2.8,-0.38 3.7,-1.13 0.9,-0.76 1.34,-1.82 1.34,-3.2 0,-2.37 -1.56,-3.56 -4.69,-3.56l-3.29 0zm0 10.46l0 8.79 3.88 0c1.68,0 2.98,-0.4 3.91,-1.19 0.93,-0.8 1.39,-1.89 1.39,-3.27 0,-2.88 -1.96,-4.33 -5.9,-4.33l-3.29 0zm31.24 11.38l-2.8 0 0 -10.05c0,-3.63 -1.35,-5.45 -4.05,-5.45 -1.36,0 -2.51,0.52 -3.44,1.57 -0.93,1.05 -1.39,2.4 -1.39,4.05l0 9.88 -2.8 0 0 -25.82 2.8 0 0 11.27 0.07 0c1.34,-2.2 3.25,-3.3 5.72,-3.3 3.93,0 5.89,2.37 5.89,7.1l0 10.75zm19.37 0l-2.79 0 0 -2.76 -0.07 0c-1.16,2.12 -2.95,3.17 -5.38,3.17 -4.16,0 -6.23,-2.47 -6.23,-7.43l0 -10.42 2.77 0 0 9.98c0,3.68 1.41,5.52 4.23,5.52 1.36,0 2.48,-0.5 3.37,-1.51 0.88,-1.01 1.32,-2.32 1.32,-3.95l0 -10.05 2.79 0 0 17.44zm30.41 0l-2.79 0 0 -10.02c0,-1.93 -0.3,-3.33 -0.9,-4.19 -0.6,-0.87 -1.6,-1.3 -3.01,-1.3 -1.19,0 -2.21,0.55 -3.04,1.63 -0.84,1.09 -1.26,2.4 -1.26,3.92l0 9.95 -2.79 0 0 -10.36c0,-3.43 -1.33,-5.14 -3.97,-5.14 -1.23,0 -2.23,0.51 -3.03,1.54 -0.8,1.03 -1.19,2.37 -1.19,4.01l0 9.95 -2.8 0 0 -17.44 2.8 0 0 2.76 0.07 0c1.23,-2.12 3.04,-3.17 5.41,-3.17 1.19,0 2.23,0.33 3.12,0.99 0.89,0.66 1.49,1.53 1.83,2.62 1.29,-2.41 3.22,-3.61 5.79,-3.61 3.84,0 5.76,2.37 5.76,7.1l0 10.75zm6.71 -21.87c-0.49,0 -0.92,-0.17 -1.27,-0.51 -0.36,-0.34 -0.53,-0.77 -0.53,-1.29 0,-0.52 0.18,-0.96 0.53,-1.3 0.35,-0.35 0.78,-0.52 1.27,-0.52 0.51,0 0.95,0.17 1.31,0.52 0.36,0.34 0.53,0.78 0.53,1.3 0,0.5 -0.18,0.92 -0.53,1.27 -0.36,0.35 -0.8,0.53 -1.31,0.53zm1.37 21.87l-2.8 0 0 -17.44 2.8 0 0 17.44zm-440.6 32.72c0,2.24 -0.22,4.23 -0.66,5.97 -0.44,1.75 -1.09,3.22 -1.94,4.43 -0.85,1.21 -1.89,2.13 -3.12,2.76 -1.23,0.63 -2.62,0.94 -4.19,0.94 -1.61,0 -3.03,-0.28 -4.26,-0.85l0 -2.67c1.35,0.76 2.79,1.14 4.33,1.14 1.11,0 2.09,-0.23 2.95,-0.68 0.87,-0.45 1.61,-1.12 2.21,-1.98 0.6,-0.87 1.06,-1.94 1.38,-3.21 0.32,-1.27 0.48,-2.73 0.48,-4.38l-0.07 0c-1.04,2.1 -2.86,3.15 -5.45,3.15 -1.05,0 -2.01,-0.18 -2.88,-0.55 -0.88,-0.37 -1.63,-0.89 -2.27,-1.56 -0.63,-0.68 -1.13,-1.48 -1.48,-2.41 -0.35,-0.93 -0.53,-1.96 -0.53,-3.08 0,-1.2 0.2,-2.31 0.59,-3.31 0.39,-1 0.94,-1.86 1.63,-2.58 0.7,-0.72 1.52,-1.29 2.48,-1.68 0.96,-0.4 2.01,-0.6 3.14,-0.6 1.23,0 2.32,0.25 3.26,0.74 0.95,0.49 1.75,1.22 2.4,2.16 0.65,0.95 1.14,2.12 1.48,3.5 0.34,1.38 0.51,2.97 0.51,4.75zm-3.01 -2.5c0,-0.94 -0.12,-1.8 -0.37,-2.58 -0.24,-0.77 -0.58,-1.43 -1.01,-1.98 -0.44,-0.55 -0.95,-0.97 -1.55,-1.28 -0.59,-0.3 -1.24,-0.45 -1.95,-0.45 -0.67,0 -1.3,0.13 -1.87,0.4 -0.58,0.26 -1.08,0.64 -1.51,1.12 -0.42,0.48 -0.76,1.06 -1,1.72 -0.24,0.66 -0.37,1.39 -0.37,2.17 0,0.87 0.12,1.64 0.35,2.32 0.23,0.68 0.56,1.26 0.99,1.73 0.43,0.47 0.95,0.83 1.56,1.08 0.61,0.25 1.28,0.38 2.02,0.38 0.65,0 1.26,-0.12 1.83,-0.37 0.58,-0.24 1.08,-0.58 1.5,-0.99 0.43,-0.42 0.76,-0.91 1.01,-1.46 0.24,-0.56 0.37,-1.17 0.37,-1.81zm17.05 16.18l-2.79 0 0 -21.11c-0.22,0.22 -0.53,0.47 -0.95,0.75 -0.41,0.27 -0.88,0.55 -1.4,0.82 -0.52,0.27 -1.06,0.52 -1.63,0.76 -0.58,0.24 -1.13,0.43 -1.68,0.56l0 -2.83c0.61,-0.17 1.26,-0.4 1.95,-0.69 0.69,-0.29 1.37,-0.61 2.03,-0.97 0.66,-0.36 1.29,-0.73 1.88,-1.12 0.59,-0.4 1.1,-0.77 1.54,-1.15l1.05 0 0 24.97zm19.62 -18.02c0,-0.75 -0.11,-1.4 -0.35,-1.96 -0.23,-0.55 -0.55,-1.02 -0.95,-1.38 -0.41,-0.37 -0.88,-0.65 -1.42,-0.83 -0.55,-0.19 -1.13,-0.27 -1.77,-0.27 -0.54,0 -1.08,0.07 -1.6,0.22 -0.52,0.15 -1.03,0.35 -1.52,0.61 -0.49,0.26 -0.97,0.57 -1.43,0.94 -0.46,0.37 -0.89,0.77 -1.29,1.21l0 -2.99c0.79,-0.76 1.66,-1.34 2.63,-1.75 0.97,-0.4 2.16,-0.61 3.55,-0.61 1,0 1.92,0.15 2.77,0.44 0.85,0.29 1.59,0.72 2.21,1.27 0.63,0.56 1.12,1.24 1.48,2.06 0.36,0.82 0.53,1.75 0.53,2.81 0,0.96 -0.11,1.84 -0.33,2.63 -0.22,0.78 -0.56,1.52 -1,2.21 -0.45,0.7 -1.01,1.36 -1.7,1.99 -0.68,0.64 -1.48,1.28 -2.4,1.94 -1.14,0.82 -2.09,1.52 -2.83,2.1 -0.74,0.58 -1.34,1.12 -1.77,1.62 -0.44,0.51 -0.75,1.01 -0.92,1.52 -0.18,0.51 -0.27,1.09 -0.27,1.75l12.16 0 0 2.51 -15.08 0 0 -1.21c0,-1.05 0.12,-1.97 0.34,-2.76 0.22,-0.79 0.6,-1.55 1.12,-2.26 0.52,-0.72 1.21,-1.43 2.05,-2.15 0.85,-0.71 1.88,-1.52 3.11,-2.42 0.88,-0.64 1.63,-1.24 2.22,-1.83 0.6,-0.58 1.08,-1.16 1.44,-1.74 0.36,-0.57 0.62,-1.16 0.77,-1.76 0.16,-0.6 0.23,-1.23 0.23,-1.9zm27.54 18.02l-2.79 0 0 -21.11c-0.22,0.22 -0.54,0.47 -0.95,0.75 -0.41,0.27 -0.88,0.55 -1.39,0.82 -0.52,0.27 -1.07,0.52 -1.63,0.76 -0.58,0.24 -1.13,0.43 -1.68,0.56l0 -2.83c0.61,-0.17 1.26,-0.4 1.95,-0.69 0.69,-0.29 1.37,-0.61 2.03,-0.97 0.66,-0.36 1.29,-0.73 1.88,-1.12 0.59,-0.4 1.1,-0.77 1.54,-1.15l1.05 0 0 24.97zm23.84 -12.31c0,2.04 -0.18,3.85 -0.55,5.43 -0.37,1.58 -0.9,2.91 -1.6,3.99 -0.7,1.09 -1.56,1.91 -2.58,2.47 -1.02,0.57 -2.17,0.84 -3.47,0.84 -1.23,0 -2.32,-0.27 -3.28,-0.81 -0.96,-0.54 -1.77,-1.33 -2.43,-2.36 -0.66,-1.03 -1.16,-2.3 -1.5,-3.8 -0.34,-1.51 -0.51,-3.23 -0.51,-5.17 0,-2.13 0.18,-4.02 0.53,-5.65 0.36,-1.64 0.88,-3.01 1.58,-4.12 0.69,-1.1 1.55,-1.94 2.58,-2.51 1.03,-0.56 2.2,-0.84 3.53,-0.84 5.12,0 7.68,4.17 7.68,12.52zm-2.86 0.27c0,-6.95 -1.65,-10.43 -4.95,-10.43 -3.49,0 -5.23,3.54 -5.23,10.61 0,6.6 1.71,9.9 5.13,9.9 3.37,0 5.06,-3.36 5.06,-10.08zm20.8 4.58c0,1.19 -0.2,2.27 -0.62,3.23 -0.41,0.97 -0.99,1.8 -1.75,2.49 -0.76,0.69 -1.67,1.23 -2.73,1.61 -1.07,0.37 -2.26,0.56 -3.56,0.56 -2.27,0 -3.96,-0.34 -5.06,-1.02l0 -2.96c1.66,1.06 3.36,1.6 5.09,1.6 0.89,0 1.69,-0.13 2.4,-0.39 0.71,-0.26 1.31,-0.63 1.81,-1.09 0.5,-0.46 0.88,-1.03 1.15,-1.69 0.27,-0.66 0.4,-1.38 0.4,-2.16 0,-1.59 -0.53,-2.84 -1.6,-3.74 -1.06,-0.9 -2.62,-1.35 -4.65,-1.35 -0.33,0 -0.68,0.01 -1.04,0.02 -0.37,0.01 -0.73,0.02 -1.09,0.04 -0.36,0.02 -0.71,0.04 -1.06,0.06 -0.34,0.02 -0.66,0.05 -0.94,0.08l0.83 -12.25 11.3 0 0 2.52 -8.88 0 -0.49 7.17c0.37,-0.02 0.75,-0.05 1.16,-0.06 0.41,-0.02 0.77,-0.03 1.09,-0.03 1.3,0 2.45,0.17 3.48,0.51 1.02,0.34 1.88,0.82 2.59,1.46 0.71,0.63 1.25,1.4 1.62,2.31 0.37,0.91 0.55,1.94 0.55,3.08zm24.19 7.46l-2.79 0 0 -21.11c-0.22,0.22 -0.53,0.47 -0.95,0.75 -0.41,0.27 -0.88,0.55 -1.39,0.82 -0.52,0.27 -1.07,0.52 -1.64,0.76 -0.58,0.24 -1.13,0.43 -1.68,0.56l0 -2.83c0.61,-0.17 1.26,-0.4 1.95,-0.69 0.69,-0.29 1.37,-0.61 2.03,-0.97 0.66,-0.36 1.29,-0.73 1.88,-1.12 0.59,-0.4 1.1,-0.77 1.54,-1.15l1.05 0 0 24.97zm23.67 -22.81c-0.37,0.65 -0.83,1.45 -1.35,2.42 -0.53,0.96 -1.09,2.05 -1.67,3.26 -0.59,1.2 -1.2,2.5 -1.81,3.88 -0.62,1.38 -1.19,2.81 -1.72,4.29 -0.53,1.48 -1,2.97 -1.41,4.49 -0.4,1.52 -0.69,3.01 -0.87,4.47l-3 0c0.2,-1.45 0.52,-2.94 0.94,-4.45 0.43,-1.52 0.91,-3.01 1.45,-4.47 0.54,-1.46 1.11,-2.86 1.71,-4.21 0.6,-1.35 1.19,-2.59 1.76,-3.73 0.56,-1.14 1.09,-2.14 1.56,-3.01 0.47,-0.87 0.85,-1.55 1.13,-2.03l-12.25 0 0 -2.52 15.54 0 0 1.62zm14.75 4.79c0,-0.75 -0.12,-1.4 -0.35,-1.96 -0.23,-0.55 -0.55,-1.02 -0.95,-1.38 -0.41,-0.37 -0.88,-0.65 -1.42,-0.83 -0.55,-0.19 -1.13,-0.27 -1.77,-0.27 -0.54,0 -1.08,0.07 -1.6,0.22 -0.52,0.15 -1.03,0.35 -1.52,0.61 -0.49,0.26 -0.97,0.57 -1.43,0.94 -0.46,0.37 -0.89,0.77 -1.29,1.21l0 -2.99c0.79,-0.76 1.66,-1.34 2.63,-1.75 0.97,-0.4 2.16,-0.61 3.55,-0.61 1,0 1.93,0.15 2.78,0.44 0.85,0.29 1.59,0.72 2.21,1.27 0.63,0.56 1.11,1.24 1.48,2.06 0.35,0.82 0.53,1.75 0.53,2.81 0,0.96 -0.11,1.84 -0.33,2.63 -0.22,0.78 -0.56,1.52 -1,2.21 -0.45,0.7 -1.01,1.36 -1.7,1.99 -0.68,0.64 -1.48,1.28 -2.4,1.94 -1.14,0.82 -2.09,1.52 -2.83,2.1 -0.74,0.58 -1.34,1.12 -1.77,1.62 -0.44,0.51 -0.74,1.01 -0.92,1.52 -0.18,0.51 -0.27,1.09 -0.27,1.75l12.16 0 0 2.51 -15.08 0 0 -1.21c0,-1.05 0.12,-1.97 0.34,-2.76 0.23,-0.79 0.6,-1.55 1.12,-2.26 0.52,-0.72 1.21,-1.43 2.05,-2.15 0.85,-0.71 1.88,-1.52 3.11,-2.42 0.88,-0.64 1.63,-1.24 2.22,-1.83 0.6,-0.58 1.08,-1.16 1.44,-1.74 0.36,-0.57 0.62,-1.16 0.77,-1.76 0.16,-0.6 0.23,-1.23 0.23,-1.9z"/>
   </g>
   <path class="fil1" d="M47.5 0l82.99 0c2.66,0 4.83,2.17 4.83,4.83l0 125.65c0,2.66 -2.17,4.83 -4.83,4.83l-125.65 0c-2.66,0 -4.83,-2.17 -4.83,-4.83l0 -82.99c0,-1.33 0.47,-2.48 1.42,-3.42l42.67 -42.67c0.94,-0.94 2.09,-1.42 3.42,-1.42zm44.32 96.46l-10.3 0 -10.3 0 -1.17 0 0 -6.16c-0.96,2.2 -2.33,3.91 -4.11,5.12 -1.9,1.29 -4.71,1.94 -8.45,1.94 -9.11,0 -13.77,-4.79 -13.99,-14.37l-0.01 0 0 -0.72 0 -14.62 0 -4.09c0,-4.86 3.94,-8.81 8.81,-8.81l5.41 0 2.59 0 0 28.24 0 1.45c0,3.61 0.26,5.99 0.77,7.14 0.51,1.14 1.53,1.72 3.07,1.72 1.54,0 2.91,-0.93 4.11,-2.8 1.2,-1.87 1.81,-4.46 1.81,-7.77l0 -13.17 0 -13.17 0 -1.63 16.8 0 0 40.08 4.97 0 0 1.63zm-31.08 -49.92l15.99 0 0 -8.57 -15.99 0 0 -0.02c-4.74,0 -8.58,3.84 -8.58,8.58l8.58 0z"/>
  </g>
 </g>
</svg>
