<?xml version="1.0" encoding="UTF-8"?>
<!DOCTYPE svg PUBLIC "-//W3C//DTD SVG 1.1//EN" "http://www.w3.org/Graphics/SVG/1.1/DTD/svg11.dtd">
<!-- Creator: CorelDRAW 2017 -->
<svg xmlns="http://www.w3.org/2000/svg" xml:space="preserve" width="37.1575mm" height="13.1449mm" version="1.1" style="shape-rendering:geometricPrecision; text-rendering:geometricPrecision; image-rendering:optimizeQuality; fill-rule:evenodd; clip-rule:evenodd"
viewBox="0 0 339.28 120.02"
 xmlns:xlink="http://www.w3.org/1999/xlink">
 <defs>
  <style type="text/css">
   <![CDATA[
    .fil0 {fill:white;fill-rule:nonzero}
   ]]>
  </style>
 </defs>
 <g id="Layer_x0020_1">
  <metadata id="CorelCorpID_0Corel-Layer"/>
  <path class="fil0" d="M29.08 5.08l4.36 0c10.36,0 18.14,1.4 23.32,4.19 5.18,2.79 7.77,6.71 7.77,13.34 0,10.21 -6.15,15.52 -18.45,17.54l0 0.22c14.91,1.86 22.36,7.55 22.36,18.65 0,8.13 -3.06,13.01 -9.17,16.25 -6.11,3.24 -14.91,4.86 -26.39,4.86l-32.88 0 0 -2.12 7.27 0 0 -37.98 0 -24.05c0,-6.02 4.88,-10.9 10.9,-10.9l10.9 0zm-29.08 110.95l0 -12.34 4.4 0 0 0.17c-0.55,0 -1.02,0.02 -1.43,0.06 -0.4,0.04 -0.69,0.09 -0.85,0.15l-0.19 0.08c-0.09,0.08 -0.13,0.33 -0.13,0.75l0 9.87c0,0.36 0.02,0.58 0.06,0.67 0.04,0.09 0.12,0.16 0.25,0.21 0.37,0.14 1.13,0.21 2.3,0.21l0 0.17 -4.4 0zm197.58 -2.65c0,0.63 -0.15,1.21 -0.46,1.76 -0.39,0.71 -0.94,1.07 -1.64,1.07 -0.92,0 -1.68,-0.35 -2.28,-1.05 -0.65,-0.77 -0.98,-1.82 -0.98,-3.16 0,-0.92 0.3,-1.8 0.9,-2.64 0.7,-1 1.59,-1.49 2.66,-1.49 0.57,0 1.03,0.32 1.36,0.95 0.23,0.44 0.38,0.93 0.44,1.47l0 -5.42c0,-0.26 -0.04,-0.43 -0.11,-0.54 -0.08,-0.1 -0.19,-0.17 -0.33,-0.19 -0.32,-0.06 -1.03,-0.1 -2.14,-0.1l0 -0.17 4.38 -0.33 0 11.39c0,0.25 0.02,0.42 0.06,0.5 0.03,0.04 0.08,0.07 0.17,0.12 0.27,0.09 0.79,0.13 1.57,0.13l0 0.17 -3.6 0.36 0 -2.83zm-0.1 -1.4c0,-1.28 -0.15,-2.26 -0.44,-2.92 -0.29,-0.67 -0.69,-1 -1.21,-1 -0.61,0 -1.04,0.28 -1.27,0.86 -0.24,0.57 -0.35,1.61 -0.35,3.11 0,1.36 0.07,2.31 0.21,2.84 0.2,0.78 0.62,1.18 1.26,1.18 0.43,0 0.82,-0.33 1.17,-0.98 0.42,-0.78 0.63,-1.81 0.63,-3.08zm9.51 1.4c0,0.63 -0.15,1.21 -0.46,1.76 -0.4,0.71 -0.94,1.07 -1.65,1.07 -0.92,0 -1.68,-0.35 -2.28,-1.05 -0.65,-0.77 -0.98,-1.82 -0.98,-3.16 0,-0.92 0.3,-1.8 0.9,-2.64 0.7,-1 1.59,-1.49 2.66,-1.49 0.57,0 1.03,0.32 1.36,0.95 0.23,0.44 0.38,0.93 0.44,1.47l0 -5.42c0,-0.26 -0.04,-0.43 -0.12,-0.54 -0.08,-0.1 -0.18,-0.17 -0.32,-0.19 -0.32,-0.06 -1.03,-0.1 -2.14,-0.1l0 -0.17 4.38 -0.33 0 11.39c0,0.25 0.02,0.42 0.06,0.5 0.02,0.04 0.08,0.07 0.17,0.12 0.27,0.09 0.79,0.13 1.57,0.13l0 0.17 -3.6 0.36 0 -2.83zm-0.1 -1.4c0,-1.28 -0.15,-2.26 -0.44,-2.92 -0.29,-0.67 -0.69,-1 -1.2,-1 -0.61,0 -1.04,0.28 -1.27,0.86 -0.24,0.57 -0.36,1.61 -0.36,3.11 0,1.36 0.07,2.31 0.21,2.84 0.2,0.78 0.62,1.18 1.26,1.18 0.43,0 0.82,-0.33 1.17,-0.98 0.42,-0.78 0.63,-1.81 0.63,-3.08zm6.14 0.12c0,1.37 0.16,2.37 0.49,2.98 0.33,0.61 0.82,0.92 1.48,0.92 0.7,0 1.32,-0.24 1.86,-0.71 0.65,-0.58 0.98,-1.36 0.98,-2.35l0.15 0c0,0.96 -0.31,1.74 -0.92,2.35 -0.61,0.61 -1.43,0.92 -2.45,0.92 -0.86,0 -1.63,-0.32 -2.34,-0.98 -0.83,-0.77 -1.24,-1.77 -1.24,-3 0,-1.34 0.41,-2.43 1.23,-3.27 0.71,-0.73 1.52,-1.09 2.41,-1.09 0.83,0 1.52,0.24 2.07,0.73 0.8,0.72 1.21,1.88 1.21,3.5l-4.92 0zm3.29 -0.23c0,-1.24 -0.11,-2.18 -0.33,-2.83 -0.22,-0.65 -0.58,-0.98 -1.07,-0.98 -0.69,0 -1.18,0.31 -1.47,0.93 -0.28,0.62 -0.42,1.58 -0.42,2.88l3.29 0zm6.89 -3.41c0.5,-0.37 0.76,-0.57 0.78,-0.59l0 2.87 -0.15 -0.04c-0.18,-0.77 -0.5,-1.39 -0.96,-1.88 -0.5,-0.52 -1.05,-0.78 -1.65,-0.78 -0.46,0 -0.84,0.09 -1.13,0.27 -0.4,0.24 -0.59,0.64 -0.59,1.2 0,0.46 0.22,0.82 0.65,1.07 0.3,0.18 0.91,0.38 1.83,0.59 0.92,0.22 1.56,0.47 1.93,0.77 0.52,0.41 0.78,1.06 0.78,1.95 0,0.83 -0.28,1.44 -0.84,1.84 -0.45,0.32 -1.01,0.48 -1.68,0.48 -0.56,0 -0.96,-0.04 -1.21,-0.11 -0.36,-0.11 -0.75,-0.39 -1.17,-0.82 -0.51,0.6 -0.78,0.91 -0.8,0.94l0 -3.39 0.13 0c0.22,0.79 0.4,1.34 0.54,1.64 0.19,0.42 0.4,0.73 0.62,0.94 0.29,0.28 0.57,0.46 0.83,0.53 0.26,0.07 0.65,0.11 1.18,0.11 0.4,0 0.72,-0.1 0.98,-0.31 0.31,-0.24 0.46,-0.59 0.46,-1.03 0,-0.57 -0.2,-1 -0.62,-1.28 -0.32,-0.22 -0.89,-0.41 -1.7,-0.57 -0.81,-0.17 -1.44,-0.43 -1.89,-0.8 -0.54,-0.45 -0.81,-1.04 -0.81,-1.78 0,-0.66 0.23,-1.23 0.68,-1.69 0.45,-0.46 1,-0.7 1.66,-0.7 0.5,0 0.93,0.08 1.3,0.25 0.48,0.22 0.77,0.33 0.84,0.35zm6.68 0c0.5,-0.37 0.76,-0.57 0.78,-0.59l0 2.87 -0.15 -0.04c-0.18,-0.77 -0.5,-1.39 -0.96,-1.88 -0.5,-0.52 -1.05,-0.78 -1.65,-0.78 -0.46,0 -0.84,0.09 -1.13,0.27 -0.4,0.24 -0.59,0.64 -0.59,1.2 0,0.46 0.22,0.82 0.65,1.07 0.31,0.18 0.91,0.38 1.83,0.59 0.91,0.22 1.56,0.47 1.93,0.77 0.52,0.41 0.78,1.06 0.78,1.95 0,0.83 -0.28,1.44 -0.84,1.84 -0.45,0.32 -1.01,0.48 -1.68,0.48 -0.56,0 -0.96,-0.04 -1.21,-0.11 -0.36,-0.11 -0.75,-0.39 -1.17,-0.82 -0.51,0.6 -0.78,0.91 -0.8,0.94l0 -3.39 0.13 0c0.22,0.79 0.4,1.34 0.54,1.64 0.19,0.42 0.4,0.73 0.62,0.94 0.29,0.28 0.57,0.46 0.84,0.53 0.26,0.07 0.65,0.11 1.18,0.11 0.4,0 0.72,-0.1 0.98,-0.31 0.31,-0.24 0.46,-0.59 0.46,-1.03 0,-0.57 -0.2,-1 -0.62,-1.28 -0.32,-0.22 -0.89,-0.41 -1.7,-0.57 -0.81,-0.17 -1.44,-0.43 -1.89,-0.8 -0.54,-0.45 -0.81,-1.04 -0.81,-1.78 0,-0.66 0.22,-1.23 0.68,-1.69 0.45,-0.46 1,-0.7 1.65,-0.7 0.5,0 0.93,0.08 1.3,0.25 0.48,0.22 0.77,0.33 0.84,0.35zm4.82 -4.1c0.41,0 0.74,-0.07 0.99,-0.21 0.3,-0.18 0.49,-0.47 0.56,-0.86 -0.02,-0.14 -0.04,-0.26 -0.04,-0.34 0,-0.09 -0.03,-0.14 -0.08,-0.15l-0.16 0.12c-0.11,0.04 -0.23,0.06 -0.33,0.06 -0.25,0 -0.47,-0.08 -0.66,-0.25 -0.19,-0.17 -0.29,-0.38 -0.29,-0.65 0,-0.34 0.09,-0.62 0.28,-0.84 0.19,-0.22 0.47,-0.33 0.84,-0.33 0.35,0 0.64,0.14 0.86,0.41 0.23,0.27 0.34,0.63 0.34,1.08 0,1.53 -0.77,2.3 -2.31,2.3l0 -0.33zm-2.78 0c0.41,0 0.74,-0.07 0.99,-0.21 0.29,-0.18 0.48,-0.47 0.56,-0.86 -0.02,-0.14 -0.04,-0.26 -0.04,-0.34 0,-0.09 -0.03,-0.14 -0.08,-0.15l-0.16 0.12c-0.11,0.04 -0.23,0.06 -0.33,0.06 -0.25,0 -0.47,-0.08 -0.66,-0.25 -0.2,-0.17 -0.29,-0.38 -0.29,-0.65 0,-0.34 0.09,-0.62 0.28,-0.84 0.18,-0.22 0.46,-0.33 0.84,-0.33 0.35,0 0.64,0.14 0.86,0.41 0.23,0.27 0.34,0.63 0.34,1.08 0,1.53 -0.77,2.3 -2.32,2.3l0 -0.33zm5.55 14.77c0.71,-0.37 1.24,-0.89 1.59,-1.55 0.29,-0.55 0.42,-1.07 0.37,-1.57 -0.08,0.06 -0.16,0.11 -0.26,0.14 -0.09,0.03 -0.19,0.05 -0.3,0.05 -0.25,0 -0.48,-0.09 -0.67,-0.27 -0.19,-0.18 -0.29,-0.4 -0.29,-0.67 0,-0.35 0.11,-0.64 0.32,-0.87 0.21,-0.24 0.51,-0.35 0.91,-0.35 0.35,0 0.63,0.14 0.83,0.42 0.2,0.28 0.3,0.66 0.3,1.13 0,0.84 -0.19,1.55 -0.56,2.12 -0.42,0.64 -1.13,1.19 -2.12,1.67l-0.11 -0.25zm13.17 -11.27l0 7.25c0,0.25 0.02,0.42 0.06,0.5 0.02,0.04 0.08,0.07 0.17,0.12 0.27,0.09 0.82,0.13 1.66,0.13l0 0.17 -5.59 0 0 -0.17c0.37,0 0.7,-0.01 1.01,-0.04 0.3,-0.02 0.56,-0.08 0.77,-0.15 0.08,-0.07 0.12,-0.25 0.12,-0.56l0 -5.97c0,-0.25 -0.03,-0.4 -0.08,-0.46 -0.09,-0.13 -0.17,-0.21 -0.25,-0.23 -0.23,-0.06 -0.75,-0.09 -1.57,-0.09l0 -0.17 3.69 -0.31zm-1.01 -4.32c0.3,0 0.56,0.1 0.76,0.31 0.2,0.2 0.3,0.46 0.3,0.77 0,0.31 -0.1,0.56 -0.3,0.77 -0.2,0.2 -0.45,0.31 -0.76,0.31 -0.3,0 -0.56,-0.1 -0.76,-0.31 -0.2,-0.2 -0.3,-0.46 -0.3,-0.77 0,-0.31 0.1,-0.56 0.3,-0.77 0.2,-0.2 0.46,-0.31 0.76,-0.31zm6.92 7.8l0 3.77c0,0.25 0.02,0.42 0.06,0.5 0.03,0.04 0.09,0.07 0.18,0.12 0.09,0.04 0.27,0.07 0.52,0.09 0.25,0.03 0.47,0.04 0.66,0.04l0 0.17 -4.9 0 0 -0.17c0.28,0 0.56,-0.01 0.83,-0.04 0.27,-0.02 0.52,-0.08 0.74,-0.15 0.08,-0.06 0.11,-0.25 0.11,-0.56l0 -5.83c0,-0.11 -0,-0.23 -0.01,-0.34 -0.01,-0.11 -0.03,-0.2 -0.09,-0.27l-0.11 -0.19c-0.13,-0.09 -0.61,-0.13 -1.45,-0.13l0 -0.17 3.46 -0.31 0 2.44c0.08,-0.55 0.24,-1.03 0.5,-1.45 0.36,-0.59 0.73,-0.9 1.13,-0.94 0.4,-0.04 0.65,-0.07 0.77,-0.07 0.8,0 1.44,0.24 1.91,0.73 0.4,0.41 0.59,0.89 0.59,1.46l0 5.08c0,0.26 0.02,0.42 0.06,0.5 0.03,0.04 0.09,0.07 0.19,0.12 0.1,0.04 0.29,0.07 0.56,0.09 0.27,0.03 0.52,0.04 0.77,0.04l0 0.17 -4.9 0 0 -0.17c0.2,0 0.44,-0.01 0.71,-0.04 0.27,-0.02 0.5,-0.08 0.71,-0.15 0.08,-0.06 0.12,-0.25 0.12,-0.56l0 -4.87c0,-0.62 -0.05,-1.08 -0.15,-1.4 -0.17,-0.53 -0.47,-0.79 -0.92,-0.79 -0.59,0 -1.06,0.37 -1.43,1.1 -0.28,0.55 -0.48,1.28 -0.59,2.19zm16.13 -2.89c0.5,-0.37 0.76,-0.57 0.79,-0.59l0 2.87 -0.15 -0.04c-0.18,-0.77 -0.5,-1.39 -0.96,-1.88 -0.5,-0.52 -1.05,-0.78 -1.65,-0.78 -0.46,0 -0.84,0.09 -1.13,0.27 -0.4,0.24 -0.59,0.64 -0.59,1.2 0,0.46 0.22,0.82 0.65,1.07 0.31,0.18 0.91,0.38 1.83,0.59 0.91,0.22 1.56,0.47 1.93,0.77 0.52,0.41 0.78,1.06 0.78,1.95 0,0.83 -0.28,1.44 -0.84,1.84 -0.45,0.32 -1.01,0.48 -1.68,0.48 -0.56,0 -0.96,-0.04 -1.21,-0.11 -0.36,-0.11 -0.75,-0.39 -1.17,-0.82 -0.51,0.6 -0.78,0.91 -0.8,0.94l0 -3.39 0.14 0c0.22,0.79 0.4,1.34 0.54,1.64 0.19,0.42 0.4,0.73 0.62,0.94 0.29,0.28 0.57,0.46 0.83,0.53 0.26,0.07 0.65,0.11 1.18,0.11 0.4,0 0.72,-0.1 0.98,-0.31 0.31,-0.24 0.46,-0.59 0.46,-1.03 0,-0.57 -0.2,-1 -0.62,-1.28 -0.32,-0.22 -0.89,-0.41 -1.7,-0.57 -0.81,-0.17 -1.44,-0.43 -1.89,-0.8 -0.54,-0.45 -0.81,-1.04 -0.81,-1.78 0,-0.66 0.23,-1.23 0.68,-1.69 0.45,-0.46 1,-0.7 1.66,-0.7 0.5,0 0.93,0.08 1.3,0.25 0.49,0.22 0.77,0.33 0.84,0.35zm6.98 5.48l0 -2.56c-0.15,0.2 -0.38,0.33 -0.68,0.38 -0.3,0.04 -0.59,0.09 -0.87,0.13 -0.37,0.09 -0.66,0.29 -0.88,0.62 -0.26,0.38 -0.38,0.92 -0.38,1.61 0,0.74 0.07,1.25 0.22,1.51 0.15,0.26 0.38,0.39 0.7,0.39 0.48,0 0.92,-0.2 1.31,-0.61 0.39,-0.4 0.58,-0.89 0.58,-1.47zm0.06 -3.46l0 -1.12c0,-0.51 -0.08,-0.86 -0.25,-1.04 -0.16,-0.18 -0.51,-0.27 -1.05,-0.27 -0.44,0 -0.83,0.09 -1.16,0.26 -0.33,0.17 -0.55,0.4 -0.65,0.68 0.05,-0.01 0.11,-0.02 0.19,-0.02 0.24,0 0.44,0.09 0.59,0.29 0.15,0.19 0.23,0.41 0.23,0.65 0,0.28 -0.09,0.51 -0.29,0.69 -0.19,0.18 -0.42,0.27 -0.68,0.27 -0.17,0 -0.32,-0.04 -0.44,-0.13 -0.37,-0.24 -0.56,-0.55 -0.56,-0.92 0,-0.18 0.04,-0.38 0.11,-0.61 0.18,-0.5 0.63,-0.86 1.34,-1.09 0.51,-0.17 1.03,-0.25 1.55,-0.25 0.94,0 1.66,0.18 2.14,0.54 0.43,0.32 0.65,0.72 0.65,1.2l0 4.22c0,0.77 0.02,1.24 0.06,1.41 0.09,0.43 0.32,0.65 0.69,0.65 0.33,0 0.55,-0.17 0.67,-0.51 0.11,-0.34 0.17,-0.84 0.17,-1.48 0,-0.18 -0,-0.36 -0.01,-0.53 -0.01,-0.18 -0.01,-0.36 -0.01,-0.55l0 -0.17 0.23 0 0 0.84c0,0.27 0.01,0.52 0.02,0.77 0,0.74 -0.09,1.24 -0.27,1.49 -0.23,0.32 -0.7,0.48 -1.41,0.48 -0.55,0 -0.96,-0.09 -1.23,-0.28 -0.32,-0.23 -0.53,-0.61 -0.63,-1.16 -0.27,0.62 -0.67,1.04 -1.21,1.25 -0.32,0.13 -0.75,0.19 -1.28,0.19 -0.54,0 -1,-0.13 -1.4,-0.38 -0.55,-0.34 -0.82,-0.87 -0.82,-1.57 0,-0.69 0.27,-1.27 0.8,-1.74 0.53,-0.46 1.18,-0.72 1.94,-0.79 0.76,-0.06 1.28,-0.17 1.54,-0.31 0.27,-0.14 0.4,-0.45 0.4,-0.94zm7.35 0.86l0 3.77c0,0.25 0.02,0.42 0.06,0.5 0.03,0.04 0.09,0.07 0.18,0.12 0.1,0.04 0.27,0.07 0.52,0.09 0.25,0.03 0.47,0.04 0.66,0.04l0 0.17 -4.9 0 0 -0.17c0.28,0 0.56,-0.01 0.83,-0.04 0.28,-0.02 0.52,-0.08 0.74,-0.15 0.08,-0.06 0.12,-0.25 0.12,-0.56l0 -5.83c0,-0.11 -0,-0.23 -0.01,-0.34 -0.01,-0.11 -0.03,-0.2 -0.08,-0.27l-0.12 -0.19c-0.13,-0.09 -0.61,-0.13 -1.45,-0.13l0 -0.17 3.46 -0.31 0 2.44c0.08,-0.55 0.24,-1.03 0.5,-1.45 0.36,-0.59 0.73,-0.9 1.13,-0.94 0.4,-0.04 0.65,-0.07 0.77,-0.07 0.8,0 1.44,0.24 1.91,0.73 0.4,0.41 0.59,0.89 0.59,1.46l0 5.08c0,0.26 0.02,0.42 0.06,0.5 0.03,0.04 0.09,0.07 0.19,0.12 0.1,0.04 0.29,0.07 0.56,0.09 0.27,0.03 0.52,0.04 0.77,0.04l0 0.17 -4.9 0 0 -0.17c0.2,0 0.44,-0.01 0.71,-0.04 0.27,-0.02 0.5,-0.08 0.71,-0.15 0.08,-0.06 0.11,-0.25 0.11,-0.56l0 -4.87c0,-0.62 -0.05,-1.08 -0.15,-1.4 -0.17,-0.53 -0.47,-0.79 -0.92,-0.79 -0.59,0 -1.06,0.37 -1.43,1.1 -0.28,0.55 -0.48,1.28 -0.59,2.19zm11.43 -2.89c0.5,-0.37 0.76,-0.57 0.78,-0.59l0 2.87 -0.15 -0.04c-0.18,-0.77 -0.5,-1.39 -0.96,-1.88 -0.5,-0.52 -1.05,-0.78 -1.65,-0.78 -0.46,0 -0.84,0.09 -1.13,0.27 -0.4,0.24 -0.59,0.64 -0.59,1.2 0,0.46 0.22,0.82 0.65,1.07 0.31,0.18 0.92,0.38 1.83,0.59 0.91,0.22 1.56,0.47 1.93,0.77 0.52,0.41 0.78,1.06 0.78,1.95 0,0.83 -0.28,1.44 -0.84,1.84 -0.45,0.32 -1.01,0.48 -1.68,0.48 -0.56,0 -0.96,-0.04 -1.21,-0.11 -0.36,-0.11 -0.75,-0.39 -1.17,-0.82 -0.51,0.6 -0.78,0.91 -0.8,0.94l0 -3.39 0.13 0c0.22,0.79 0.4,1.34 0.54,1.64 0.19,0.42 0.4,0.73 0.62,0.94 0.29,0.28 0.57,0.46 0.84,0.53 0.26,0.07 0.65,0.11 1.18,0.11 0.4,0 0.72,-0.1 0.98,-0.31 0.31,-0.24 0.46,-0.59 0.46,-1.03 0,-0.57 -0.2,-1 -0.62,-1.28 -0.32,-0.22 -0.89,-0.41 -1.7,-0.57 -0.81,-0.17 -1.44,-0.43 -1.89,-0.8 -0.54,-0.45 -0.81,-1.04 -0.81,-1.78 0,-0.66 0.23,-1.23 0.68,-1.69 0.45,-0.46 1.01,-0.7 1.66,-0.7 0.5,0 0.93,0.08 1.3,0.25 0.48,0.22 0.76,0.33 0.84,0.35zm5.64 4.13l0 2.52c0,0.25 0.02,0.42 0.06,0.5 0.03,0.04 0.09,0.07 0.18,0.12 0.1,0.04 0.26,0.07 0.51,0.09 0.24,0.03 0.44,0.04 0.59,0.04l0 0.17 -4.94 0 0 -0.17c0.77,0 1.28,-0.05 1.55,-0.13l0.13 -0.06c0.07,-0.06 0.11,-0.25 0.11,-0.56l0 -10.25c0,-0.26 -0.04,-0.44 -0.11,-0.55 -0.08,-0.11 -0.15,-0.17 -0.21,-0.18 -0.2,-0.06 -0.69,-0.1 -1.45,-0.1l0 -0.17 3.58 -0.33 0 8.71 2.41 -2.41c0.38,-0.37 0.57,-0.71 0.57,-1 0,-0.24 -0.13,-0.43 -0.4,-0.57 -0.27,-0.14 -0.68,-0.2 -1.23,-0.2l0 -0.19 4.38 0 0 0.19c-0.48,0 -0.86,0.07 -1.14,0.21 -0.27,0.14 -0.65,0.43 -1.12,0.87l-1.19 1.17 2.45 4.89c0.14,0.28 0.32,0.47 0.53,0.55 0.21,0.08 0.56,0.12 1.04,0.12l0 0.17 -4.67 0 0 -0.17c0.42,0 0.75,-0.01 0.98,-0.03 0.23,-0.02 0.34,-0.11 0.34,-0.28 0,-0.08 -0.05,-0.22 -0.15,-0.42l-1.8 -3.58 -1.01 1.03zm8.36 -3.46c0,-0.26 -0.03,-0.42 -0.08,-0.48 -0.09,-0.13 -0.17,-0.21 -0.25,-0.23 -0.23,-0.06 -0.75,-0.1 -1.57,-0.1l0 -0.17 3.69 -0.29 0 2.43c0.05,-0.52 0.23,-1.01 0.54,-1.47 0.42,-0.64 0.95,-0.96 1.59,-0.96 0.24,0 0.5,0.08 0.79,0.24 0.28,0.16 0.47,0.36 0.56,0.6 0.09,0.24 0.14,0.46 0.14,0.65 0,0.51 -0.21,0.86 -0.64,1.05 -0.1,0.05 -0.24,0.08 -0.4,0.08 -0.26,0 -0.48,-0.09 -0.66,-0.27 -0.18,-0.18 -0.27,-0.45 -0.27,-0.8 0,-0.23 0.09,-0.46 0.26,-0.69 0.17,-0.23 0.38,-0.32 0.61,-0.27 -0.07,-0.27 -0.31,-0.4 -0.69,-0.4 -0.37,0 -0.74,0.27 -1.1,0.81 -0.48,0.69 -0.72,1.58 -0.72,2.67l0 3.58c0,0.25 0.02,0.42 0.06,0.5 0.03,0.04 0.08,0.07 0.17,0.12 0.27,0.09 0.82,0.13 1.67,0.13l0 0.17 -5.59 0 0 -0.17c0.37,0 0.7,-0.01 1,-0.04 0.3,-0.02 0.56,-0.08 0.78,-0.15 0.08,-0.07 0.12,-0.25 0.12,-0.56l0 -5.97zm9.3 -1.27l0 7.25c0,0.25 0.02,0.42 0.06,0.5 0.03,0.04 0.08,0.07 0.17,0.12 0.27,0.09 0.82,0.13 1.66,0.13l0 0.17 -5.59 0 0 -0.17c0.37,0 0.7,-0.01 1,-0.04 0.3,-0.02 0.56,-0.08 0.78,-0.15 0.08,-0.07 0.11,-0.25 0.11,-0.56l0 -5.97c0,-0.25 -0.02,-0.4 -0.08,-0.46 -0.09,-0.13 -0.17,-0.21 -0.25,-0.23 -0.23,-0.06 -0.75,-0.09 -1.57,-0.09l0 -0.17 3.69 -0.31zm-1.01 -4.32c0.3,0 0.56,0.1 0.76,0.31 0.2,0.2 0.3,0.46 0.3,0.77 0,0.31 -0.1,0.56 -0.3,0.77 -0.2,0.2 -0.46,0.31 -0.76,0.31 -0.3,0 -0.55,-0.1 -0.76,-0.31 -0.2,-0.2 -0.3,-0.46 -0.3,-0.77 0,-0.31 0.1,-0.56 0.3,-0.77 0.2,-0.2 0.46,-0.31 0.76,-0.31zm8.91 8.42l0 0.88c0,0.29 0.01,0.57 0.02,0.84 0,0.89 -0.1,1.51 -0.31,1.84 -0.28,0.46 -0.82,0.69 -1.63,0.69 -0.77,0 -1.33,-0.18 -1.68,-0.55 -0.36,-0.37 -0.54,-0.9 -0.54,-1.59l0 -5.43 -1.53 0 0 -0.17c1.05,-0.25 1.83,-0.86 2.36,-1.82 0.43,-0.77 0.64,-1.64 0.64,-2.6l0.33 0 0 4.04 2.2 0 0 0.55 -2.2 0 0 5.19c0,0.68 0.03,1.13 0.08,1.33 0.13,0.48 0.41,0.72 0.85,0.72 0.51,0 0.85,-0.28 1.01,-0.84 0.11,-0.38 0.17,-1.1 0.17,-2.17l0 -0.91 0.23 0zm9.55 4.08l-4.4 0 0 -0.17c1.16,0 1.93,-0.07 2.3,-0.21 0.13,-0.05 0.2,-0.1 0.23,-0.15 0.05,-0.1 0.08,-0.35 0.08,-0.73l0 -9.87c0,-0.36 -0.03,-0.58 -0.08,-0.67 -0.03,-0.05 -0.11,-0.1 -0.25,-0.15 -0.37,-0.14 -1.13,-0.21 -2.28,-0.21l0 -0.17 4.4 0 0 12.34zm-323.26 -14.79c-0.41,0 -0.76,0.08 -1.03,0.24 -0.27,0.16 -0.45,0.44 -0.52,0.83 -0.01,0.09 -0.01,0.19 0.01,0.31 0.02,0.11 0.06,0.18 0.11,0.19l0.16 -0.12c0.11,-0.04 0.23,-0.06 0.33,-0.06 0.25,0 0.47,0.08 0.66,0.25 0.2,0.17 0.29,0.38 0.29,0.64 0,0.34 -0.09,0.63 -0.28,0.85 -0.18,0.22 -0.47,0.33 -0.84,0.33 -0.35,0 -0.64,-0.14 -0.86,-0.41 -0.23,-0.28 -0.34,-0.64 -0.34,-1.08 0,-1.53 0.77,-2.3 2.31,-2.3l0 0.33zm-2.77 0c-0.41,0 -0.76,0.08 -1.03,0.24 -0.27,0.16 -0.45,0.44 -0.52,0.83 -0.01,0.09 -0.01,0.19 0.01,0.31 0.02,0.11 0.05,0.18 0.11,0.19l0.16 -0.12c0.12,-0.04 0.23,-0.06 0.33,-0.06 0.24,0 0.46,0.08 0.66,0.25 0.19,0.17 0.29,0.38 0.29,0.64 0,0.34 -0.09,0.63 -0.28,0.85 -0.19,0.22 -0.47,0.33 -0.84,0.33 -0.35,0 -0.63,-0.14 -0.86,-0.41 -0.23,-0.28 -0.34,-0.64 -0.34,-1.08 0,-1.53 0.77,-2.3 2.32,-2.3l0 0.33zm11.58 8.95c0.1,-0.58 0.25,-1.05 0.44,-1.39 0.32,-0.55 0.76,-0.85 1.32,-0.91 0.09,0 0.19,-0.01 0.29,-0.02 0.11,-0.01 0.19,-0.02 0.24,-0.02 0.79,0 1.42,0.24 1.89,0.73 0.39,0.41 0.59,0.89 0.59,1.46l0 5.08c0,0.24 0.02,0.4 0.06,0.48 0.03,0.05 0.09,0.09 0.18,0.13 0.09,0.04 0.27,0.07 0.52,0.09 0.25,0.03 0.46,0.04 0.62,0.04l0 0.17 -4.54 0 0 -0.17c0.31,0 0.54,-0.01 0.71,-0.03 0.17,-0.02 0.35,-0.08 0.54,-0.18 0.08,-0.06 0.12,-0.25 0.12,-0.54l0 -4.87c0,-0.6 -0.05,-1.07 -0.15,-1.4 -0.17,-0.53 -0.47,-0.79 -0.91,-0.79 -0.45,0 -0.82,0.21 -1.12,0.64 -0.33,0.47 -0.59,1.33 -0.77,2.58l0 3.85c0,0.25 0.02,0.42 0.06,0.5 0.03,0.04 0.08,0.07 0.17,0.1 0.09,0.03 0.25,0.06 0.49,0.1 0.24,0.03 0.46,0.05 0.66,0.05l0 0.17 -4.55 0 0 -0.17c0.48,0 0.86,-0.05 1.13,-0.13l0.13 -0.06c0.08,-0.06 0.11,-0.25 0.11,-0.56l0 -4.87c0,-0.62 -0.05,-1.08 -0.15,-1.4 -0.17,-0.53 -0.47,-0.79 -0.92,-0.79 -0.57,0 -1.02,0.37 -1.34,1.1 -0.22,0.51 -0.39,1.24 -0.52,2.19l0 3.77c0,0.25 0.02,0.42 0.06,0.5 0.03,0.04 0.08,0.07 0.18,0.12 0.09,0.04 0.27,0.07 0.52,0.09 0.25,0.03 0.46,0.04 0.62,0.04l0 0.17 -4.84 0 0 -0.17c0.27,0 0.54,-0.01 0.81,-0.04 0.27,-0.02 0.52,-0.08 0.74,-0.15 0.08,-0.06 0.12,-0.25 0.12,-0.56l0 -5.81c0,-0.11 -0,-0.23 -0.01,-0.34 -0.01,-0.12 -0.04,-0.21 -0.09,-0.27 -0.09,-0.13 -0.17,-0.2 -0.23,-0.23 -0.19,-0.06 -0.63,-0.1 -1.32,-0.1l0 -0.17 3.44 -0.33 0 2.44c0.09,-0.61 0.22,-1.09 0.4,-1.45 0.3,-0.58 0.73,-0.91 1.31,-0.97 0.13,-0.01 0.24,-0.02 0.34,-0.03 0.1,-0.01 0.17,-0.01 0.22,-0.01 0.82,0 1.44,0.23 1.86,0.69 0.39,0.42 0.58,0.97 0.58,1.66zm14.28 1.83c0,1.24 -0.43,2.26 -1.28,3.08 -0.78,0.74 -1.65,1.11 -2.62,1.11 -0.99,0 -1.86,-0.34 -2.6,-1.03 -0.87,-0.8 -1.3,-1.86 -1.3,-3.16 0,-1.24 0.43,-2.26 1.28,-3.06 0.78,-0.73 1.65,-1.09 2.62,-1.09 0.98,0 1.85,0.35 2.6,1.03 0.87,0.79 1.3,1.83 1.3,3.12zm-1.99 0c0,-1.42 -0.12,-2.41 -0.36,-2.99 -0.28,-0.66 -0.8,-1 -1.55,-1 -0.69,0 -1.18,0.32 -1.47,0.96 -0.29,0.64 -0.44,1.65 -0.44,3.02 0,1.4 0.13,2.42 0.39,3.06 0.26,0.64 0.77,0.96 1.52,0.96 0.69,0 1.18,-0.33 1.47,-0.98 0.29,-0.65 0.44,-1.66 0.44,-3.04zm8.13 -0.06l0 0.88c0,0.29 0.01,0.57 0.02,0.84 0,0.89 -0.1,1.51 -0.3,1.84 -0.28,0.46 -0.82,0.69 -1.63,0.69 -0.77,0 -1.33,-0.18 -1.68,-0.55 -0.36,-0.37 -0.54,-0.9 -0.54,-1.59l0 -5.43 -1.53 0 0 -0.17c1.05,-0.25 1.83,-0.86 2.36,-1.82 0.43,-0.77 0.64,-1.64 0.64,-2.6l0.33 0 0 4.04 2.2 0 0 0.55 -2.2 0 0 5.19c0,0.68 0.03,1.13 0.08,1.33 0.13,0.48 0.41,0.72 0.85,0.72 0.51,0 0.85,-0.28 1.01,-0.84 0.11,-0.38 0.17,-1.1 0.17,-2.17l0 -0.91 0.23 0zm4.13 -0.69l0 3.85c0,0.25 0.02,0.42 0.06,0.5 0.02,0.04 0.08,0.07 0.18,0.12 0.09,0.04 0.27,0.07 0.51,0.09 0.25,0.03 0.47,0.04 0.66,0.04l0 0.17 -5.11 0 0 -0.17c0.37,0 0.7,-0.01 1,-0.04 0.3,-0.02 0.56,-0.08 0.78,-0.15 0.08,-0.06 0.12,-0.25 0.12,-0.56l0 -10.06c0,-0.17 -0,-0.31 -0.01,-0.42 -0.01,-0.11 -0.04,-0.2 -0.08,-0.27 -0.09,-0.13 -0.17,-0.2 -0.25,-0.23 -0.23,-0.06 -0.74,-0.1 -1.53,-0.1l0 -0.17 3.67 -0.33 0 6.77c0.08,-0.51 0.26,-1 0.56,-1.47 0.37,-0.59 0.81,-0.91 1.32,-0.96 0.1,0 0.21,-0.01 0.33,-0.02 0.12,-0.01 0.21,-0.02 0.26,-0.02 0.89,0 1.56,0.24 2.01,0.73 0.36,0.4 0.54,0.88 0.54,1.46l0 5.08c0,0.26 0.02,0.42 0.06,0.5 0.03,0.04 0.09,0.07 0.19,0.12 0.1,0.04 0.29,0.07 0.55,0.09 0.27,0.03 0.54,0.04 0.8,0.04l0 0.17 -4.94 0 0 -0.17c0.2,0 0.44,-0.01 0.71,-0.04 0.27,-0.02 0.5,-0.08 0.71,-0.15 0.08,-0.06 0.12,-0.25 0.12,-0.56l0 -5.19c0,-0.55 -0.06,-0.96 -0.17,-1.23 -0.18,-0.43 -0.52,-0.64 -1.01,-0.64 -0.54,0 -0.99,0.36 -1.38,1.06 -0.32,0.59 -0.54,1.31 -0.65,2.15zm9.03 0.83c0,1.37 0.16,2.37 0.49,2.98 0.33,0.61 0.82,0.92 1.48,0.92 0.7,0 1.32,-0.24 1.86,-0.71 0.65,-0.58 0.98,-1.36 0.98,-2.35l0.15 0c0,0.96 -0.3,1.74 -0.92,2.35 -0.61,0.61 -1.43,0.92 -2.45,0.92 -0.86,0 -1.63,-0.32 -2.33,-0.98 -0.83,-0.77 -1.24,-1.77 -1.24,-3 0,-1.34 0.41,-2.43 1.22,-3.27 0.71,-0.73 1.52,-1.09 2.41,-1.09 0.83,0 1.52,0.24 2.07,0.73 0.8,0.72 1.21,1.88 1.21,3.5l-4.92 0zm3.29 -0.23c0,-1.24 -0.11,-2.18 -0.33,-2.83 -0.22,-0.65 -0.58,-0.98 -1.07,-0.98 -0.69,0 -1.18,0.31 -1.47,0.93 -0.28,0.62 -0.42,1.58 -0.42,2.88l3.29 0zm4.15 -2.73c0,-0.26 -0.03,-0.42 -0.08,-0.48 -0.09,-0.13 -0.17,-0.21 -0.25,-0.23 -0.23,-0.06 -0.75,-0.1 -1.57,-0.1l0 -0.17 3.69 -0.29 0 2.43c0.05,-0.52 0.23,-1.01 0.54,-1.47 0.42,-0.64 0.95,-0.96 1.59,-0.96 0.24,0 0.5,0.08 0.78,0.24 0.28,0.16 0.47,0.36 0.57,0.6 0.09,0.24 0.14,0.46 0.14,0.65 0,0.51 -0.21,0.86 -0.64,1.05 -0.1,0.05 -0.24,0.08 -0.4,0.08 -0.26,0 -0.48,-0.09 -0.66,-0.27 -0.18,-0.18 -0.27,-0.45 -0.27,-0.8 0,-0.23 0.09,-0.46 0.26,-0.69 0.17,-0.23 0.38,-0.32 0.61,-0.27 -0.07,-0.27 -0.31,-0.4 -0.68,-0.4 -0.37,0 -0.74,0.27 -1.11,0.81 -0.48,0.69 -0.72,1.58 -0.72,2.67l0 3.58c0,0.25 0.02,0.42 0.06,0.5 0.03,0.04 0.08,0.07 0.17,0.12 0.27,0.09 0.82,0.13 1.67,0.13l0 0.17 -5.59 0 0 -0.17c0.37,0 0.7,-0.01 1,-0.04 0.3,-0.02 0.56,-0.08 0.78,-0.15 0.08,-0.07 0.12,-0.25 0.12,-0.56l0 -5.97zm12.4 2.96c0,1.37 0.16,2.37 0.49,2.98 0.33,0.61 0.82,0.92 1.48,0.92 0.7,0 1.32,-0.24 1.86,-0.71 0.65,-0.58 0.98,-1.36 0.98,-2.35l0.15 0c0,0.96 -0.31,1.74 -0.92,2.35 -0.61,0.61 -1.43,0.92 -2.45,0.92 -0.86,0 -1.63,-0.32 -2.34,-0.98 -0.83,-0.77 -1.24,-1.77 -1.24,-3 0,-1.34 0.41,-2.43 1.22,-3.27 0.71,-0.73 1.52,-1.09 2.41,-1.09 0.83,0 1.52,0.24 2.07,0.73 0.8,0.72 1.21,1.88 1.21,3.5l-4.92 0zm3.29 -0.23c0,-1.24 -0.11,-2.18 -0.33,-2.83 -0.22,-0.65 -0.58,-0.98 -1.07,-0.98 -0.69,0 -1.18,0.31 -1.47,0.93 -0.28,0.62 -0.42,1.58 -0.42,2.88l3.29 0zm7.2 2.08l0 -2.56c-0.15,0.2 -0.38,0.33 -0.68,0.38 -0.3,0.04 -0.59,0.09 -0.87,0.13 -0.37,0.09 -0.66,0.29 -0.88,0.62 -0.25,0.38 -0.38,0.92 -0.38,1.61 0,0.74 0.07,1.25 0.22,1.51 0.15,0.26 0.38,0.39 0.7,0.39 0.48,0 0.92,-0.2 1.31,-0.61 0.39,-0.4 0.58,-0.89 0.58,-1.47zm0.06 -3.46l0 -1.12c0,-0.51 -0.08,-0.86 -0.25,-1.04 -0.16,-0.18 -0.51,-0.27 -1.05,-0.27 -0.44,0 -0.83,0.09 -1.15,0.26 -0.33,0.17 -0.55,0.4 -0.65,0.68 0.05,-0.01 0.11,-0.02 0.19,-0.02 0.24,0 0.44,0.09 0.59,0.29 0.15,0.19 0.23,0.41 0.23,0.65 0,0.28 -0.1,0.51 -0.29,0.69 -0.19,0.18 -0.42,0.27 -0.68,0.27 -0.17,0 -0.32,-0.04 -0.44,-0.13 -0.37,-0.24 -0.56,-0.55 -0.56,-0.92 0,-0.18 0.04,-0.38 0.12,-0.61 0.18,-0.5 0.63,-0.86 1.34,-1.09 0.51,-0.17 1.03,-0.25 1.55,-0.25 0.94,0 1.66,0.18 2.14,0.54 0.43,0.32 0.65,0.72 0.65,1.2l0 4.22c0,0.77 0.02,1.24 0.06,1.41 0.09,0.43 0.32,0.65 0.69,0.65 0.33,0 0.55,-0.17 0.67,-0.51 0.11,-0.34 0.17,-0.84 0.17,-1.48 0,-0.18 -0,-0.36 -0.01,-0.53 -0.01,-0.18 -0.01,-0.36 -0.01,-0.55l0 -0.17 0.23 0 0 0.84c0,0.27 0.01,0.52 0.02,0.77 0,0.74 -0.09,1.24 -0.27,1.49 -0.23,0.32 -0.7,0.48 -1.41,0.48 -0.55,0 -0.96,-0.09 -1.23,-0.28 -0.32,-0.23 -0.53,-0.61 -0.64,-1.16 -0.27,0.62 -0.67,1.04 -1.2,1.25 -0.32,0.13 -0.75,0.19 -1.28,0.19 -0.54,0 -1,-0.13 -1.4,-0.38 -0.55,-0.34 -0.82,-0.87 -0.82,-1.57 0,-0.69 0.27,-1.27 0.8,-1.74 0.53,-0.46 1.18,-0.72 1.94,-0.79 0.77,-0.06 1.28,-0.17 1.55,-0.31 0.26,-0.14 0.4,-0.45 0.4,-0.94zm5.76 -1.34c0,-0.26 -0.03,-0.42 -0.08,-0.48 -0.09,-0.13 -0.17,-0.21 -0.25,-0.23 -0.23,-0.06 -0.75,-0.1 -1.57,-0.1l0 -0.17 3.69 -0.29 0 2.43c0.05,-0.52 0.23,-1.01 0.54,-1.47 0.42,-0.64 0.95,-0.96 1.59,-0.96 0.24,0 0.5,0.08 0.79,0.24 0.28,0.16 0.47,0.36 0.56,0.6 0.09,0.24 0.14,0.46 0.14,0.65 0,0.51 -0.21,0.86 -0.64,1.05 -0.1,0.05 -0.24,0.08 -0.4,0.08 -0.26,0 -0.48,-0.09 -0.66,-0.27 -0.18,-0.18 -0.27,-0.45 -0.27,-0.8 0,-0.23 0.09,-0.46 0.26,-0.69 0.17,-0.23 0.38,-0.32 0.61,-0.27 -0.08,-0.27 -0.31,-0.4 -0.69,-0.4 -0.37,0 -0.74,0.27 -1.11,0.81 -0.48,0.69 -0.72,1.58 -0.72,2.67l0 3.58c0,0.25 0.02,0.42 0.06,0.5 0.03,0.04 0.08,0.07 0.17,0.12 0.27,0.09 0.82,0.13 1.67,0.13l0 0.17 -5.59 0 0 -0.17c0.37,0 0.7,-0.01 1,-0.04 0.3,-0.02 0.56,-0.08 0.77,-0.15 0.08,-0.07 0.12,-0.25 0.12,-0.56l0 -5.97zm11.08 2.82l0 0.88c0,0.29 0.01,0.57 0.02,0.84 0,0.89 -0.1,1.51 -0.31,1.84 -0.28,0.46 -0.82,0.69 -1.63,0.69 -0.77,0 -1.33,-0.18 -1.68,-0.55 -0.36,-0.37 -0.54,-0.9 -0.54,-1.59l0 -5.43 -1.53 0 0 -0.17c1.05,-0.25 1.83,-0.86 2.36,-1.82 0.43,-0.77 0.64,-1.64 0.64,-2.6l0.33 0 0 4.04 2.2 0 0 0.55 -2.2 0 0 5.19c0,0.68 0.03,1.13 0.08,1.33 0.12,0.48 0.4,0.72 0.84,0.72 0.51,0 0.85,-0.28 1.01,-0.84 0.11,-0.38 0.17,-1.1 0.17,-2.17l0 -0.91 0.23 0zm4.13 -0.69l0 3.85c0,0.25 0.02,0.42 0.06,0.5 0.03,0.04 0.09,0.07 0.18,0.12 0.1,0.04 0.27,0.07 0.52,0.09 0.25,0.03 0.47,0.04 0.66,0.04l0 0.17 -5.11 0 0 -0.17c0.37,0 0.7,-0.01 1.01,-0.04 0.3,-0.02 0.56,-0.08 0.77,-0.15 0.08,-0.06 0.12,-0.25 0.12,-0.56l0 -10.06c0,-0.17 -0,-0.31 -0.01,-0.42 -0.01,-0.11 -0.03,-0.2 -0.09,-0.27 -0.09,-0.13 -0.17,-0.2 -0.25,-0.23 -0.23,-0.06 -0.74,-0.1 -1.53,-0.1l0 -0.17 3.67 -0.33 0 6.77c0.08,-0.51 0.26,-1 0.56,-1.47 0.37,-0.59 0.81,-0.91 1.32,-0.96 0.1,0 0.21,-0.01 0.34,-0.02 0.12,-0.01 0.21,-0.02 0.26,-0.02 0.89,0 1.56,0.24 2.01,0.73 0.36,0.4 0.54,0.88 0.54,1.46l0 5.08c0,0.26 0.02,0.42 0.06,0.5 0.03,0.04 0.09,0.07 0.19,0.12 0.1,0.04 0.29,0.07 0.55,0.09 0.27,0.03 0.54,0.04 0.8,0.04l0 0.17 -4.94 0 0 -0.17c0.21,0 0.44,-0.01 0.71,-0.04 0.27,-0.02 0.5,-0.08 0.71,-0.15 0.08,-0.06 0.12,-0.25 0.12,-0.56l0 -5.19c0,-0.55 -0.06,-0.96 -0.17,-1.23 -0.18,-0.43 -0.52,-0.64 -1.01,-0.64 -0.54,0 -1,0.36 -1.38,1.06 -0.32,0.59 -0.53,1.31 -0.65,2.15zm16.46 -7.57l0.38 0 -4.8 12.34 -0.38 0 4.8 -12.34zm5.82 8.4c0,1.37 0.16,2.37 0.49,2.98 0.33,0.61 0.82,0.92 1.48,0.92 0.7,0 1.32,-0.24 1.86,-0.71 0.65,-0.58 0.98,-1.36 0.98,-2.35l0.15 0c0,0.96 -0.3,1.74 -0.92,2.35 -0.61,0.61 -1.43,0.92 -2.45,0.92 -0.86,0 -1.63,-0.32 -2.34,-0.98 -0.83,-0.77 -1.24,-1.77 -1.24,-3 0,-1.34 0.41,-2.43 1.23,-3.27 0.71,-0.73 1.52,-1.09 2.41,-1.09 0.83,0 1.52,0.24 2.07,0.73 0.8,0.72 1.21,1.88 1.21,3.5l-4.92 0zm3.29 -0.23c0,-1.24 -0.11,-2.18 -0.33,-2.83 -0.22,-0.65 -0.58,-0.98 -1.07,-0.98 -0.69,0 -1.18,0.31 -1.47,0.93 -0.28,0.62 -0.42,1.58 -0.42,2.88l3.29 0zm7.2 2.08l0 -2.56c-0.15,0.2 -0.38,0.33 -0.68,0.38 -0.3,0.04 -0.59,0.09 -0.87,0.13 -0.37,0.09 -0.66,0.29 -0.88,0.62 -0.26,0.38 -0.38,0.92 -0.38,1.61 0,0.74 0.07,1.25 0.22,1.51 0.15,0.26 0.38,0.39 0.7,0.39 0.48,0 0.92,-0.2 1.31,-0.61 0.39,-0.4 0.58,-0.89 0.58,-1.47zm0.06 -3.46l0 -1.12c0,-0.51 -0.08,-0.86 -0.25,-1.04 -0.16,-0.18 -0.51,-0.27 -1.05,-0.27 -0.44,0 -0.83,0.09 -1.16,0.26 -0.33,0.17 -0.55,0.4 -0.65,0.68 0.05,-0.01 0.12,-0.02 0.19,-0.02 0.24,0 0.44,0.09 0.59,0.29 0.15,0.19 0.23,0.41 0.23,0.65 0,0.28 -0.1,0.51 -0.29,0.69 -0.19,0.18 -0.42,0.27 -0.68,0.27 -0.17,0 -0.31,-0.04 -0.44,-0.13 -0.37,-0.24 -0.56,-0.55 -0.56,-0.92 0,-0.18 0.04,-0.38 0.12,-0.61 0.18,-0.5 0.63,-0.86 1.34,-1.09 0.51,-0.17 1.03,-0.25 1.55,-0.25 0.94,0 1.66,0.18 2.14,0.54 0.43,0.32 0.65,0.72 0.65,1.2l0 4.22c0,0.77 0.02,1.24 0.06,1.41 0.09,0.43 0.32,0.65 0.69,0.65 0.33,0 0.55,-0.17 0.67,-0.51 0.11,-0.34 0.17,-0.84 0.17,-1.48 0,-0.18 -0,-0.36 -0.01,-0.53 -0.01,-0.18 -0.01,-0.36 -0.01,-0.55l0 -0.17 0.23 0 0 0.84c0,0.27 0.01,0.52 0.02,0.77 0,0.74 -0.09,1.24 -0.27,1.49 -0.23,0.32 -0.7,0.48 -1.41,0.48 -0.55,0 -0.96,-0.09 -1.23,-0.28 -0.32,-0.23 -0.53,-0.61 -0.63,-1.16 -0.27,0.62 -0.67,1.04 -1.2,1.25 -0.32,0.13 -0.75,0.19 -1.28,0.19 -0.54,0 -1,-0.13 -1.4,-0.38 -0.55,-0.34 -0.82,-0.87 -0.82,-1.57 0,-0.69 0.27,-1.27 0.8,-1.74 0.53,-0.46 1.18,-0.72 1.94,-0.79 0.77,-0.06 1.28,-0.17 1.55,-0.31 0.26,-0.14 0.4,-0.45 0.4,-0.94zm5.76 -1.34c0,-0.26 -0.03,-0.42 -0.08,-0.48 -0.09,-0.13 -0.17,-0.21 -0.25,-0.23 -0.23,-0.06 -0.75,-0.1 -1.57,-0.1l0 -0.17 3.69 -0.29 0 2.43c0.05,-0.52 0.23,-1.01 0.54,-1.47 0.42,-0.64 0.95,-0.96 1.59,-0.96 0.24,0 0.5,0.08 0.78,0.24 0.28,0.16 0.47,0.36 0.56,0.6 0.09,0.24 0.14,0.46 0.14,0.65 0,0.51 -0.22,0.86 -0.64,1.05 -0.1,0.05 -0.24,0.08 -0.4,0.08 -0.26,0 -0.48,-0.09 -0.66,-0.27 -0.18,-0.18 -0.27,-0.45 -0.27,-0.8 0,-0.23 0.09,-0.46 0.26,-0.69 0.17,-0.23 0.38,-0.32 0.61,-0.27 -0.08,-0.27 -0.31,-0.4 -0.69,-0.4 -0.37,0 -0.74,0.27 -1.11,0.81 -0.48,0.69 -0.72,1.58 -0.72,2.67l0 3.58c0,0.25 0.02,0.42 0.06,0.5 0.03,0.04 0.08,0.07 0.17,0.12 0.27,0.09 0.82,0.13 1.66,0.13l0 0.17 -5.59 0 0 -0.17c0.37,0 0.71,-0.01 1,-0.04 0.3,-0.02 0.56,-0.08 0.78,-0.15 0.08,-0.07 0.12,-0.25 0.12,-0.56l0 -5.97zm11.08 2.82l0 0.88c0,0.29 0.01,0.57 0.02,0.84 0,0.89 -0.1,1.51 -0.3,1.84 -0.28,0.46 -0.82,0.69 -1.63,0.69 -0.77,0 -1.33,-0.18 -1.68,-0.55 -0.36,-0.37 -0.54,-0.9 -0.54,-1.59l0 -5.43 -1.53 0 0 -0.17c1.05,-0.25 1.83,-0.86 2.36,-1.82 0.43,-0.77 0.64,-1.64 0.64,-2.6l0.33 0 0 4.04 2.2 0 0 0.55 -2.2 0 0 5.19c0,0.68 0.03,1.13 0.08,1.33 0.12,0.48 0.4,0.72 0.84,0.72 0.51,0 0.85,-0.28 1.01,-0.84 0.11,-0.38 0.17,-1.1 0.17,-2.17l0 -0.91 0.23 0zm4.13 -0.69l0 3.85c0,0.25 0.02,0.42 0.06,0.5 0.03,0.04 0.09,0.07 0.18,0.12 0.09,0.04 0.27,0.07 0.52,0.09 0.25,0.03 0.47,0.04 0.66,0.04l0 0.17 -5.11 0 0 -0.17c0.37,0 0.7,-0.01 1,-0.04 0.3,-0.02 0.56,-0.08 0.77,-0.15 0.08,-0.06 0.12,-0.25 0.12,-0.56l0 -10.06c0,-0.17 -0,-0.31 -0.01,-0.42 -0,-0.11 -0.03,-0.2 -0.08,-0.27 -0.09,-0.13 -0.17,-0.2 -0.25,-0.23 -0.23,-0.06 -0.74,-0.1 -1.53,-0.1l0 -0.17 3.67 -0.33 0 6.77c0.08,-0.51 0.26,-1 0.56,-1.47 0.37,-0.59 0.81,-0.91 1.32,-0.96 0.1,0 0.21,-0.01 0.33,-0.02 0.12,-0.01 0.21,-0.02 0.26,-0.02 0.89,0 1.56,0.24 2.01,0.73 0.36,0.4 0.54,0.88 0.54,1.46l0 5.08c0,0.26 0.02,0.42 0.06,0.5 0.03,0.04 0.09,0.07 0.19,0.12 0.1,0.04 0.29,0.07 0.56,0.09 0.27,0.03 0.54,0.04 0.8,0.04l0 0.17 -4.94 0 0 -0.17c0.2,0 0.44,-0.01 0.71,-0.04 0.27,-0.02 0.5,-0.08 0.71,-0.15 0.08,-0.06 0.12,-0.25 0.12,-0.56l0 -5.19c0,-0.55 -0.06,-0.96 -0.17,-1.23 -0.18,-0.43 -0.52,-0.64 -1.01,-0.64 -0.54,0 -1,0.36 -1.38,1.06 -0.32,0.59 -0.54,1.31 -0.65,2.15zm13.51 1.52c-0.41,-0.2 -0.73,-0.47 -0.96,-0.81 -0.23,-0.33 -0.34,-0.74 -0.34,-1.22 0,-0.82 0.37,-1.51 1.11,-2.09 0.67,-0.52 1.42,-0.78 2.24,-0.78 0.24,0 0.5,0.03 0.77,0.09 0.27,0.06 0.52,0.15 0.75,0.25l0 -0.46c0,-0.6 0.11,-0.99 0.32,-1.18 0.21,-0.19 0.53,-0.28 0.97,-0.28 0.19,0 0.36,0.06 0.5,0.2 0.14,0.13 0.21,0.3 0.21,0.5 0,0.45 -0.21,0.68 -0.63,0.68 -0.43,0 -0.65,-0.21 -0.65,-0.62 0,-0.07 0.01,-0.15 0.04,-0.21 0.03,-0.06 0.06,-0.13 0.1,-0.2 -0.26,0.04 -0.42,0.15 -0.51,0.34 -0.08,0.19 -0.13,0.44 -0.13,0.76 0.01,0.26 0.02,0.46 0.02,0.59 0.5,0.24 0.89,0.56 1.18,0.96 0.29,0.39 0.43,0.85 0.43,1.38 0,0.78 -0.37,1.42 -1.11,1.91 -0.66,0.45 -1.41,0.67 -2.24,0.67 -0.59,0 -1.14,-0.1 -1.66,-0.31 -0.44,0 -0.8,0.07 -1.08,0.21 -0.37,0.19 -0.55,0.5 -0.55,0.94 0,0.19 0.16,0.34 0.48,0.44 0.3,0.11 0.9,0.17 1.79,0.17l1.11 0c1.13,0 1.99,0.15 2.58,0.46 0.74,0.38 1.11,1.02 1.11,1.91 0,0.94 -0.33,1.67 -1,2.18 -0.67,0.51 -1.55,0.77 -2.63,0.77 -1.29,0 -2.32,-0.21 -3.08,-0.64 -0.77,-0.43 -1.15,-0.91 -1.15,-1.46 0,-0.36 0.21,-0.66 0.63,-0.9 0.29,-0.17 0.75,-0.34 1.38,-0.52 -0.56,-0.2 -0.98,-0.42 -1.24,-0.65 -0.37,-0.32 -0.55,-0.73 -0.55,-1.24 0,-0.54 0.16,-0.98 0.48,-1.32 0.32,-0.34 0.77,-0.51 1.36,-0.51zm3.67 -2.2c0,-0.81 -0.11,-1.41 -0.32,-1.81 -0.25,-0.48 -0.69,-0.72 -1.31,-0.72 -0.57,0 -0.98,0.23 -1.24,0.68 -0.26,0.45 -0.39,1.06 -0.39,1.85 0,0.9 0.11,1.54 0.33,1.93 0.22,0.39 0.65,0.58 1.29,0.58 0.58,0 1,-0.2 1.25,-0.61 0.25,-0.4 0.38,-1.04 0.38,-1.9zm-1.38 9.28c0.86,0 1.53,-0.18 2.01,-0.54 0.47,-0.36 0.71,-0.79 0.71,-1.31 0,-0.62 -0.19,-1.03 -0.58,-1.25 -0.39,-0.22 -1.1,-0.33 -2.15,-0.33 -1.19,0 -2.01,0.14 -2.46,0.42 -0.37,0.23 -0.56,0.62 -0.56,1.19 0,0.54 0.15,0.94 0.46,1.21 0.47,0.41 1.32,0.61 2.57,0.61zm12.09 -7.84c0,1.24 -0.43,2.26 -1.28,3.08 -0.78,0.74 -1.65,1.11 -2.62,1.11 -0.99,0 -1.86,-0.34 -2.6,-1.03 -0.87,-0.8 -1.3,-1.86 -1.3,-3.16 0,-1.24 0.43,-2.26 1.28,-3.06 0.78,-0.73 1.65,-1.09 2.62,-1.09 0.98,0 1.85,0.35 2.6,1.03 0.87,0.79 1.3,1.83 1.3,3.12zm-1.99 0c0,-1.42 -0.12,-2.41 -0.36,-2.99 -0.28,-0.66 -0.8,-1 -1.55,-1 -0.69,0 -1.18,0.32 -1.47,0.96 -0.29,0.64 -0.44,1.65 -0.44,3.02 0,1.4 0.13,2.42 0.39,3.06 0.26,0.64 0.77,0.96 1.52,0.96 0.69,0 1.18,-0.33 1.47,-0.98 0.29,-0.65 0.44,-1.66 0.44,-3.04zm15.06 -31.87l-12.75 0 -12.75 0 -1.45 0 0 -7.63c-1.19,2.72 -2.88,4.84 -5.09,6.34 -2.35,1.6 -5.83,2.4 -10.46,2.4 -11.28,0 -17.05,-5.93 -17.32,-17.78l-0.01 0 0 -0.89 0 -18.1 0 -5.07c0,-6.02 4.88,-10.9 10.9,-10.9l6.69 0 3.2 0 0 34.96 0 1.79c0,4.47 0.32,7.42 0.95,8.83 0.63,1.42 1.9,2.12 3.8,2.12 1.9,0 3.6,-1.16 5.09,-3.47 1.49,-2.31 2.24,-5.52 2.24,-9.62l0 -16.31 0 -16.3 0 -2.01 20.8 0 0 49.61 6.15 0 0 2.01zm-38.47 -61.8l19.79 0 0 -10.6 -19.79 0 0 -0.02c-5.87,0 -10.62,4.76 -10.62,10.62l10.62 0zm156.44 2.46c-3.95,0 -6.76,-1.01 -8.44,-3.02 -1.68,-2.01 -2.52,-4.51 -2.52,-7.49 0,-2.98 0.91,-5.44 2.74,-7.38 1.83,-1.94 4.6,-2.91 8.33,-2.91 3.73,0 6.56,0.88 8.5,2.63 1.94,1.75 2.91,4.25 2.91,7.49 0,3.24 -0.93,5.83 -2.79,7.77 -1.86,1.94 -4.77,2.91 -8.72,2.91zm-10.29 18.62c0,-6.02 4.88,-10.9 10.9,-10.9l7.05 0 2.84 0 0 0 0 49.61 6.26 0 0 2.01 -27.06 0 0 -2.01 0 -14.65 0 -9.71 0 -14.35zm-81.86 -10.9l3.36 0 0 10.29c2.46,-7.6 7.88,-11.41 16.27,-11.41 8.39,0 13.47,4.03 15.26,12.08 2.61,-8.05 8.09,-12.08 16.44,-12.08 10.96,0 16.44,6.23 16.44,18.67l0 32.05 6.26 0 0 2.01 -27.06 0 0 -2.01 0 -23.8 0 -10.94c0,-5.67 -0.48,-8.98 -1.45,-9.95 -0.45,-0.45 -1.04,-0.67 -1.79,-0.67 -2.16,0 -4.06,1.45 -5.7,4.36 -1.64,2.91 -2.46,6.6 -2.46,11.07l0 29.93 4.03 0 0 2.01 -24.82 0 0 -2.01 0 -23.8 0 -10.94c0,-5.67 -0.48,-8.98 -1.45,-9.95 -0.45,-0.45 -1.04,-0.67 -1.79,-0.67 -2.09,0 -3.97,1.59 -5.65,4.75 -1.68,3.17 -2.52,6.95 -2.52,11.35l0 14.61 0 14.65 4.03 0 0 2.01 -24.83 0 0 -2.01 0 -14.65 0 -11.91 0 -12.14c0,-6.02 4.88,-10.9 10.9,-10.9l6.54 0zm-136.25 -23.44l5.31 0 1.01 0 0 10.9 0 20.39c1.13,-2.33 2.62,-4.28 4.47,-5.84 2.46,-2.09 6.19,-3.13 11.18,-3.13 11.56,0 17.33,6.23 17.33,18.67l0 32.05 6.26 0 0 2.01 -31.65 0 0 -2.01 4.58 0 0 -34.74c0,-4.47 -0.3,-7.36 -0.89,-8.67 -0.6,-1.3 -1.68,-1.96 -3.24,-1.96 -2.39,0 -4.49,1.57 -6.32,4.7 -1.83,3.13 -2.74,6.93 -2.74,11.41l0 29.26 4.81 0 0 2.01 -25.61 0 0 -2.01 0 -38.09 0 -9.18 0 -14.87c0,-6.02 4.88,-10.9 10.9,-10.9l4.59 0zm-65.03 34.96l2.91 0c3.88,0 6.58,-1.17 8.11,-3.52 1.53,-2.35 2.29,-5.14 2.29,-9.99l0 -5.26c0,-5.52 -0.67,-8.57 -2.01,-10.77 -1.34,-2.2 -3.92,-3.3 -7.72,-3.3l-3.58 0 0 8.78 0 24.05zm0 2.12l0 35.86 5.26 0c4.1,0 6.97,-1.42 8.61,-4.25 1.64,-2.83 2.46,-7.01 2.46,-12.53l0 -5.12c0,-4.92 -1.01,-7.81 -3.02,-10.27 -2.01,-2.46 -5.59,-3.69 -10.74,-3.69l-2.57 0z"/>
 </g>
</svg>
